<?xml version="1.0" standalone="no"?>
<!DOCTYPE svg PUBLIC "-//W3C//DTD SVG 20010904//EN"
 "http://www.w3.org/TR/2001/REC-SVG-20010904/DTD/svg10.dtd">
<svg version="1.0" xmlns="http://www.w3.org/2000/svg"
 width="900.000000pt" height="872.000000pt" viewBox="0 0 900.000000 872.000000"
 preserveAspectRatio="xMidYMid meet">

<g transform="translate(0.000000,872.000000) scale(0.100000,-0.100000)"
fill="#000000" stroke="none">
<path d="M4768 8565 c-2 -2 -95 -6 -208 -10 -113 -3 -254 -12 -315 -20 -60 -7
-125 -14 -143 -14 -18 0 -56 -4 -85 -10 -28 -6 -77 -13 -107 -16 -96 -11 -211
-41 -285 -75 -11 -5 -46 -18 -77 -29 -32 -11 -76 -32 -98 -46 -23 -14 -52 -30
-65 -35 -14 -5 -25 -15 -25 -22 0 -10 36 -12 162 -10 89 2 207 -2 262 -8 56
-7 115 -13 131 -15 26 -3 76 -11 180 -30 44 -7 107 -26 127 -36 10 -5 22 -9
28 -9 5 0 42 -15 82 -34 40 -18 84 -37 97 -41 23 -7 217 -103 294 -146 20 -12
37 -26 37 -32 0 -11 135 -106 164 -116 6 -2 32 -19 57 -37 26 -19 50 -34 54
-34 3 0 27 -17 53 -39 26 -21 70 -51 97 -67 52 -30 164 -101 203 -129 12 -9
22 -24 22 -34 0 -17 39 -118 75 -196 8 -16 25 -59 39 -95 53 -138 192 -418
250 -504 25 -38 46 -71 46 -75 0 -3 16 -28 35 -55 19 -27 35 -55 35 -63 0 -28
27 -10 100 66 162 171 287 365 315 489 10 42 21 80 24 84 6 7 73 -6 176 -33
22 -6 51 -13 65 -16 50 -9 247 -63 325 -89 95 -31 264 -116 320 -160 22 -17
60 -44 85 -59 97 -60 200 -144 313 -257 64 -65 117 -123 117 -130 0 -6 30 -44
68 -83 163 -174 335 -520 408 -825 111 -457 130 -605 133 -1014 2 -293 -5
-357 -79 -691 -11 -49 -29 -115 -40 -145 -12 -30 -30 -80 -40 -110 -37 -107
-51 -145 -59 -165 -5 -11 -19 -49 -31 -85 -25 -70 -85 -199 -140 -295 -19 -33
-43 -76 -54 -97 -12 -20 -50 -83 -86 -139 -36 -57 -67 -108 -69 -114 -2 -5
-36 -53 -74 -105 -39 -52 -82 -111 -96 -130 -14 -19 -64 -75 -111 -125 -48
-49 -113 -118 -145 -153 -71 -75 -208 -190 -329 -273 -97 -67 -349 -196 -436
-223 -30 -10 -64 -22 -75 -27 -51 -23 -211 -71 -253 -75 l-47 -5 -28 61 c-48
102 -78 130 -182 164 -41 15 -92 17 -312 17 -235 0 -269 2 -327 20 -36 11 -67
23 -70 27 -9 15 -78 13 -102 -2 -21 -15 -25 -14 -53 10 -17 14 -59 66 -93 115
-61 89 -78 102 -133 103 -48 1 -73 78 -40 122 20 27 18 44 -5 44 -49 0 -137
-79 -146 -129 -7 -44 -24 -83 -42 -94 -7 -5 -10 -17 -7 -28 8 -24 -3 -59 -18
-59 -13 0 -92 135 -131 223 -37 85 -54 168 -60 298 -7 135 -6 136 74 144 66 7
114 29 143 66 184 239 307 348 420 375 28 7 257 6 265 0 5 -5 -21 -72 -34 -87
-8 -8 -14 -22 -14 -31 0 -28 -59 -97 -97 -114 l-38 -15 26 -14 c34 -18 135
-13 176 8 16 9 42 32 58 53 15 20 61 69 101 108 81 79 97 109 84 155 -9 34 -4
42 26 36 10 -2 38 -4 60 -4 33 -1 43 -5 47 -21 3 -11 16 -24 30 -29 38 -15 51
-67 22 -91 -21 -17 -19 -40 4 -40 10 0 35 7 55 15 41 17 51 42 44 113 -4 45
-19 73 -101 184 -13 17 -50 40 -99 60 -44 18 -98 50 -121 70 -39 35 -47 38
-103 38 -40 0 -80 -8 -120 -24 -33 -12 -78 -26 -100 -30 -36 -7 -114 -51 -122
-68 -2 -5 -9 -8 -14 -8 -6 0 -34 -17 -62 -38 -180 -136 -281 -188 -305 -158
-5 7 -4 36 5 76 7 36 14 92 14 125 0 73 12 92 105 172 193 164 382 255 583
282 29 4 55 5 57 3 3 -3 48 -5 101 -4 90 1 228 -22 289 -47 11 -5 47 -18 80
-31 117 -44 242 -120 305 -186 55 -57 75 -94 50 -94 -5 0 -10 -7 -10 -15 0 -9
-9 -33 -20 -55 -16 -31 -20 -59 -20 -137 0 -54 5 -116 10 -138 25 -99 42 -217
46 -305 2 -52 10 -128 17 -168 17 -86 6 -107 -13 -24 -15 70 -57 164 -101 229
-48 71 -167 183 -240 226 l-64 37 -9 -27 c-5 -16 -15 -35 -22 -44 -8 -8 -14
-21 -14 -28 0 -16 -44 -31 -93 -31 -29 1 -51 8 -71 24 -28 24 -29 24 -7 35 15
8 21 21 21 45 0 35 -19 58 -61 75 -26 10 -27 9 -33 -47 -6 -55 -9 -59 -65
-104 -32 -26 -78 -75 -102 -109 -39 -56 -51 -66 -114 -91 -57 -24 -79 -28
-120 -23 -125 15 -166 68 -79 101 45 17 74 53 74 92 0 10 11 29 25 42 44 41
34 48 -71 52 l-95 3 -57 -43 c-210 -156 -344 -455 -303 -670 5 -23 11 -45 13
-48 3 -2 20 2 38 10 30 12 81 8 97 -7 2 -3 -3 -25 -12 -50 -20 -59 -8 -92 35
-102 45 -10 86 -49 141 -134 55 -87 80 -107 109 -91 37 20 95 13 195 -24 l100
-37 232 10 c150 7 241 7 258 1 14 -5 25 -8 25 -6 0 2 19 -2 43 -9 40 -12 44
-11 80 14 20 14 57 50 83 80 130 154 182 287 185 476 l1 96 33 -48 c33 -49 62
-78 110 -109 31 -20 129 -24 147 -6 7 7 22 12 34 12 13 0 29 7 38 15 8 8 18
15 23 15 37 0 145 173 177 285 10 33 32 87 49 120 92 178 92 178 92 284 0 62
-5 103 -12 113 -27 32 -16 275 17 398 6 23 9 44 6 47 -2 3 2 26 9 51 40 141
51 313 30 487 -14 116 -30 222 -41 265 -2 8 -14 63 -28 122 -29 127 -95 267
-179 380 -31 42 -60 78 -65 80 -5 1 -29 30 -55 63 -25 33 -65 79 -90 103 -45
42 -45 42 -42 102 5 66 -11 234 -25 265 -5 11 -11 40 -14 65 -8 67 -94 291
-117 306 -5 3 -9 14 -9 25 0 10 -4 19 -10 19 -5 0 -17 14 -25 31 -61 117 -317
375 -412 415 -17 8 -34 18 -38 24 -6 10 -55 14 -55 5 0 -3 7 -22 16 -43 40
-95 63 -391 44 -568 -5 -44 -16 -155 -25 -249 -26 -277 -18 -247 -83 -296 -59
-45 -69 -55 -136 -130 -74 -82 -140 -168 -201 -264 -21 -33 -55 -85 -76 -117
-22 -31 -39 -60 -39 -65 0 -16 -186 -221 -271 -299 -37 -34 -109 -74 -132 -74
-15 0 -68 -39 -54 -40 4 0 68 16 142 34 83 22 171 37 227 40 51 3 122 8 158
11 63 5 103 8 312 20 92 6 202 37 232 66 20 19 34 7 82 -68 32 -50 71 -94 114
-129 71 -57 245 -164 268 -164 8 0 35 -7 61 -15 25 -8 59 -17 74 -20 16 -3 47
-23 69 -43 34 -32 41 -46 44 -84 2 -28 -2 -53 -11 -64 -12 -18 -17 -15 -82 46
-37 36 -70 67 -73 70 -24 26 -142 106 -186 125 -30 13 -67 33 -82 44 -38 26
-256 117 -317 131 -27 7 -75 18 -105 26 -30 7 -86 16 -125 20 -38 4 -86 9
-105 12 -93 14 -293 -1 -420 -30 -25 -5 -56 -12 -70 -14 -54 -10 -198 -57
-258 -85 -35 -16 -67 -29 -71 -29 -5 0 -42 -16 -82 -36 -71 -36 -120 -65 -294
-179 -44 -29 -91 -58 -105 -65 -14 -7 -27 -16 -30 -19 -3 -4 -20 -19 -39 -34
-55 -45 -269 -288 -298 -337 -15 -25 -43 -67 -63 -95 -60 -81 -129 -220 -191
-383 -33 -84 -59 -161 -59 -170 0 -9 -7 -26 -15 -36 -9 -12 -15 -44 -16 -80 0
-34 -4 -81 -7 -106 -9 -59 6 -311 19 -327 6 -7 8 -16 5 -22 -4 -5 3 -47 14
-93 12 -46 27 -110 35 -143 8 -33 21 -85 30 -115 9 -30 19 -68 24 -85 8 -32
66 -179 102 -260 33 -75 134 -237 168 -269 17 -17 31 -38 31 -47 0 -10 16 -31
36 -46 20 -15 55 -48 78 -72 22 -24 61 -57 86 -74 25 -17 47 -34 50 -38 6 -9
122 -82 175 -110 22 -12 72 -41 110 -64 39 -24 106 -56 150 -73 165 -62 251
-92 266 -92 8 0 38 -9 67 -19 28 -11 52 -17 52 -14 0 3 6 1 13 -5 11 -9 63
-20 127 -28 13 -1 52 -7 85 -13 158 -28 632 -37 725 -13 25 6 68 13 95 16 100
12 135 18 141 27 3 5 22 9 42 9 20 0 67 9 105 19 37 11 67 18 67 15 0 -2 12 2
28 10 15 7 43 17 62 21 34 7 227 82 283 111 16 8 34 14 40 14 16 0 161 76 252
132 95 59 147 95 239 168 39 30 87 66 107 80 120 81 471 416 505 482 9 18 36
56 59 83 47 55 178 246 225 327 37 64 50 85 71 118 29 46 99 181 99 192 0 6
11 36 25 67 13 31 45 110 70 176 25 66 52 134 59 150 74 168 180 637 207 915
5 58 13 137 17 175 11 121 6 763 -7 850 -38 250 -63 383 -89 475 -6 19 -16 60
-22 90 -7 30 -28 101 -47 158 -19 56 -36 111 -38 121 -2 10 -27 85 -55 167
-29 82 -66 187 -82 234 -43 124 -175 404 -213 450 -6 8 -24 36 -38 62 -34 59
-168 219 -250 297 -180 173 -260 247 -275 252 -18 7 -123 115 -212 218 -30 35
-82 107 -114 160 -58 94 -164 210 -280 305 -70 57 -296 206 -312 206 -8 0 -22
4 -32 9 -43 24 -374 161 -413 172 -44 12 -86 19 -124 21 -86 4 -148 19 -176
42 -32 27 -292 158 -389 196 -129 51 -449 153 -490 157 -25 2 -58 8 -75 13
-16 5 -64 12 -105 15 -41 4 -106 14 -145 21 -86 18 -114 22 -117 19z m117 -41
c86 -8 340 -52 405 -71 69 -20 337 -109 370 -124 66 -29 92 -41 190 -88 58
-27 123 -61 145 -75 l40 -25 -50 -1 c-120 -2 -244 -11 -292 -22 -46 -10 -59
-9 -95 7 -103 44 -128 54 -208 83 -86 31 -131 45 -140 45 -3 0 -29 8 -57 18
-29 10 -53 16 -53 13 0 -3 -10 0 -21 7 -49 26 -484 45 -652 29 -81 -8 -117
-24 -81 -36 130 -42 460 -199 544 -258 25 -18 52 -35 61 -38 9 -4 76 -43 148
-87 73 -45 134 -81 136 -81 3 0 35 -18 71 -41 37 -22 77 -45 88 -50 12 -5 39
-20 61 -34 34 -21 269 -139 315 -159 8 -3 23 -10 33 -16 63 -36 234 -120 245
-120 7 0 9 -28 6 -82 -8 -118 -9 -123 -19 -121 -29 6 -191 66 -199 74 -6 5
-16 9 -23 9 -8 0 -31 8 -51 18 -85 43 -218 115 -232 127 -8 7 -35 24 -60 38
-93 51 -198 118 -210 132 -7 8 -16 15 -21 15 -10 0 -124 77 -179 120 -19 15
-82 59 -140 98 -58 38 -136 92 -174 120 -104 77 -403 219 -516 247 -8 2 -32
11 -54 20 -33 14 -117 33 -231 51 -16 3 -36 7 -44 10 -8 3 -40 7 -70 10 -31 3
-78 9 -106 13 -27 4 -105 6 -173 5 -67 -1 -124 2 -127 6 -6 9 153 87 204 100
20 5 77 20 126 34 106 28 192 43 335 57 57 5 128 13 156 18 29 4 117 9 196 10
78 1 145 5 148 7 5 5 132 -1 255 -12z m1238 -430 c29 -8 81 -14 117 -14 36 -1
83 -7 105 -15 22 -8 49 -15 59 -15 11 0 40 -9 65 -21 44 -20 68 -30 101 -43 8
-3 22 -10 30 -15 26 -17 146 -71 156 -71 24 0 144 -58 179 -87 22 -18 43 -33
48 -33 23 0 266 -203 316 -263 14 -18 29 -34 32 -37 16 -12 98 -149 148 -245
18 -36 65 -168 87 -245 9 -30 22 -67 30 -82 8 -15 14 -37 14 -50 0 -53 186
-238 293 -292 40 -20 42 -24 45 -68 l3 -48 -34 0 c-31 0 -131 50 -268 133 -64
40 -254 180 -274 204 -18 20 -128 83 -148 83 -5 0 -45 17 -90 39 -176 83 -216
100 -245 106 -17 3 -43 10 -57 15 -14 5 -36 12 -48 14 -12 2 -60 14 -107 25
-47 12 -94 23 -105 26 -11 2 -70 17 -132 32 l-112 28 3 75 c2 92 8 104 50 96
131 -23 221 -39 316 -58 30 -5 78 -14 107 -18 28 -4 68 -14 90 -20 21 -7 52
-17 68 -22 17 -6 39 -14 50 -18 111 -43 165 -67 195 -85 19 -12 49 -27 67 -34
18 -7 53 -36 79 -63 70 -75 79 -44 16 57 -4 6 -7 13 -7 16 0 3 -18 34 -40 69
-86 138 -280 353 -380 419 -27 19 -59 42 -70 51 -11 9 -36 26 -55 36 -19 10
-42 24 -50 30 -18 14 -187 81 -221 88 -13 3 -49 13 -79 22 -30 9 -72 19 -93
21 -20 3 -40 9 -43 14 -3 5 -18 9 -34 9 -16 0 -57 6 -92 13 -42 9 -131 14
-268 13 -195 -1 -207 -2 -242 -24 -45 -28 -77 -80 -80 -132 -2 -22 -4 -40 -5
-40 -2 0 -50 23 -107 52 -115 57 -118 61 -111 164 9 122 82 176 270 200 22 2
65 8 95 13 92 13 306 10 363 -5z m85 -262 c18 -12 49 -102 73 -212 37 -174 20
-553 -28 -611 -7 -8 -13 -25 -13 -36 0 -26 -61 -142 -115 -218 -62 -88 -195
-236 -205 -230 -13 8 -67 90 -92 138 -11 23 -37 62 -58 87 -20 25 -47 66 -59
92 -13 27 -27 50 -32 54 -5 3 -9 14 -9 25 0 11 -25 66 -55 123 -30 56 -55 108
-55 115 0 7 -12 38 -26 69 -52 111 -101 242 -92 242 13 0 42 -16 118 -65 36
-23 82 -49 103 -59 25 -11 42 -28 48 -45 6 -16 19 -43 29 -62 10 -19 40 -77
66 -129 74 -149 131 -220 176 -220 23 0 31 7 47 43 73 168 85 225 84 407 0 85
-6 175 -11 200 -6 25 -18 74 -26 110 -9 36 -18 76 -22 90 -3 13 -9 29 -14 35
-4 5 -10 19 -12 30 -3 17 4 21 47 26 78 9 119 9 133 1z m1680 -973 c89 -89
128 -181 162 -375 13 -76 13 -194 0 -194 -5 0 -25 13 -43 30 -34 29 -34 32
-34 107 -1 128 -11 188 -48 267 -33 70 -74 114 -95 101 -16 -10 -22 -70 -12
-109 13 -44 3 -46 -40 -7 l-33 29 -1 136 -2 136 45 -32 c24 -18 69 -58 101
-89z m291 -424 c42 -24 88 -57 102 -72 29 -32 79 -119 79 -138 0 -19 -91 -72
-141 -82 -33 -7 -59 -5 -104 8 -57 16 -124 45 -135 59 -3 3 -27 23 -55 45 -27
21 -64 53 -81 69 -34 34 -70 124 -55 139 16 16 91 -35 116 -78 13 -22 43 -56
67 -76 51 -42 165 -99 198 -99 29 0 90 37 90 55 0 23 -69 83 -127 111 -50 25
-53 28 -53 65 0 23 5 39 12 39 6 0 46 -20 87 -45z m-2181 -137 c124 -71 368
-331 413 -440 6 -16 15 -28 20 -28 5 0 9 -8 9 -18 0 -10 6 -26 14 -37 7 -11
29 -60 49 -110 58 -146 110 -480 78 -500 -5 -3 -40 9 -77 27 l-68 33 -12 75
c-14 81 -39 170 -59 210 -7 14 -28 56 -47 94 -22 45 -60 96 -112 152 -78 83
-99 96 -108 72 -11 -29 4 -461 21 -649 4 -47 6 -164 4 -260 l-4 -174 -47 -44
c-56 -52 -90 -76 -98 -68 -19 18 -48 272 -47 397 1 75 23 457 29 500 25 179
33 293 29 433 -4 128 -14 234 -31 325 -4 17 -4 32 -1 32 3 0 23 -10 45 -22z
m2034 -148 c18 0 27 -11 86 -103 37 -56 165 -176 243 -227 10 -7 -11 -80 -23
-80 -17 0 -125 89 -173 142 -54 60 -113 144 -150 214 -27 51 -34 87 -13 66 7
-7 20 -12 30 -12z m357 -57 c15 -16 36 -50 46 -77 17 -45 18 -59 7 -190 -11
-129 -27 -215 -44 -231 -7 -8 -58 64 -58 82 0 8 4 21 10 31 20 34 48 168 46
218 -2 56 -18 84 -49 84 -21 0 -53 -31 -63 -62 -7 -22 -32 -21 -46 2 -7 11 0
33 27 80 57 99 78 109 124 63z m-114 -364 c48 -90 116 -175 164 -204 53 -32
135 -45 144 -23 13 36 -68 158 -119 178 -16 7 -20 15 -16 39 5 38 9 38 57 5
76 -52 127 -142 129 -230 l1 -59 -37 -9 c-39 -10 -80 -1 -163 33 -89 36 -191
159 -211 255 -17 79 -17 78 4 74 9 -2 31 -28 47 -59z m88 -356 c2 -95 4 -103
41 -176 23 -44 61 -97 91 -127 l52 -52 -16 -43 c-18 -47 -31 -66 -31 -46 0 7
-28 43 -63 79 -75 80 -120 172 -144 294 -13 71 -14 94 -3 157 l12 73 30 -29
c29 -29 30 -34 31 -130z m284 -40 c10 -23 17 -75 19 -133 3 -100 -6 -143 -64
-295 -14 -38 -27 -74 -28 -80 -5 -27 -25 -67 -31 -61 -3 3 -14 18 -23 33 -17
27 -16 31 16 121 19 51 37 114 41 140 10 58 10 171 1 194 -9 22 -46 12 -59
-16 -20 -45 -46 -81 -60 -81 -7 0 -19 11 -26 25 -11 23 -8 29 50 90 53 55 110
96 140 99 4 1 15 -16 24 -36z m-2332 -93 c6 -5 49 -22 96 -38 139 -46 253
-133 349 -265 19 -27 52 -70 73 -98 38 -49 140 -241 144 -269 1 -8 9 -35 17
-60 8 -25 23 -74 32 -110 9 -36 19 -72 22 -80 3 -8 6 -24 8 -35 1 -11 5 -49 9
-85 3 -36 12 -105 19 -155 16 -111 6 -277 -22 -395 -54 -229 -82 -472 -60
-514 28 -51 36 -121 23 -198 -13 -71 -50 -169 -67 -176 -4 -2 -8 -10 -8 -18 0
-12 -21 -61 -51 -116 -5 -10 -9 -26 -9 -35 0 -30 -43 -124 -84 -185 -34 -51
-105 -112 -131 -113 -5 -1 -20 -6 -32 -13 -31 -17 -61 -15 -71 6 -5 9 -17 49
-26 88 -27 109 -18 193 36 347 42 122 43 130 37 205 -9 102 -36 159 -107 233
-50 50 -64 60 -88 57 -57 -6 -80 -126 -40 -209 27 -57 128 -158 164 -165 39
-8 45 -15 36 -49 -11 -45 -52 -31 -148 52 -27 23 -53 40 -58 37 -5 -3 -6 -24
-3 -47 3 -23 10 -89 15 -147 18 -190 28 -229 78 -282 20 -22 22 -28 9 -28 -8
0 -19 5 -22 10 -8 13 -25 13 -25 0 0 -5 14 -25 31 -45 37 -42 31 -60 -7 -24
-58 53 -91 173 -104 376 -4 73 -13 154 -19 180 -6 26 -15 71 -22 98 -6 28 -13
73 -15 100 -3 28 -7 59 -9 71 -5 24 27 119 50 144 8 9 15 22 15 28 0 6 14 37
30 69 24 46 30 70 30 120 0 60 1 63 24 63 13 0 31 3 39 6 21 8 27 -29 12 -72
-11 -33 -10 -43 8 -86 34 -83 97 -115 173 -88 52 18 81 137 55 224 -36 117
-36 109 -4 177 69 147 52 195 -100 291 -15 10 -31 17 -35 16 -4 0 -14 1 -22 4
-67 23 -117 38 -128 38 -24 0 -152 83 -212 137 -55 50 -140 164 -140 189 0 5
27 29 59 51 l60 41 17 -26 c55 -83 157 -169 270 -226 75 -38 280 -106 320
-106 69 0 104 132 68 261 -34 123 -150 336 -216 395 -25 22 -166 115 -239 157
-46 26 -216 87 -244 87 -18 0 -16 -14 -22 107 -4 92 -3 102 14 106 25 8 135
-2 148 -13z m-408 -154 l-5 -114 -43 -39 c-55 -48 -174 -173 -228 -238 -49
-58 -136 -229 -126 -246 22 -35 338 49 450 120 58 36 176 131 202 162 52 61
133 170 147 198 14 26 19 29 43 21 16 -4 42 -15 58 -24 17 -9 36 -16 43 -16
21 0 24 -27 6 -62 -26 -51 -147 -208 -195 -254 -24 -23 -75 -64 -114 -92 -38
-29 -74 -55 -80 -59 -25 -20 -125 -67 -177 -83 -32 -11 -86 -19 -123 -19 -140
0 -508 -34 -625 -57 -22 -5 -19 1 21 38 104 97 233 247 290 337 148 236 319
451 403 510 22 16 45 30 50 30 5 1 6 -50 3 -113z m2528 -106 c11 -12 20 -41
22 -71 2 -28 13 -66 24 -85 10 -19 28 -50 40 -71 36 -64 100 -101 181 -102 28
-1 40 4 48 19 15 29 7 49 -45 105 -25 26 -45 50 -45 52 0 3 -10 13 -21 22 -18
15 -20 22 -12 46 5 16 14 30 20 32 5 2 36 -25 67 -61 56 -64 106 -169 106
-223 0 -64 -124 -86 -209 -36 -66 38 -127 107 -171 193 -38 76 -43 95 -41 163
1 42 10 46 36 17z m54 -295 c31 -43 31 -45 16 -74 -39 -76 -8 -317 55 -439
l39 -74 -23 -35 -24 -34 -24 33 c-21 29 -65 126 -97 213 -16 44 -21 80 -28
180 -4 70 -2 98 9 120 8 17 21 58 29 93 7 34 14 62 14 62 1 0 16 -20 34 -45z
m298 -253 c26 -57 17 -169 -19 -247 -33 -71 -63 -110 -187 -244 -13 -14 -35
-44 -50 -65 l-26 -40 -9 42 c-7 34 -6 46 8 60 9 10 16 24 16 30 0 7 4 12 9 12
11 0 106 134 151 213 53 94 58 157 13 157 -9 0 -44 -20 -80 -45 -36 -26 -66
-45 -67 -43 -11 18 -26 63 -26 77 0 10 20 31 48 49 58 37 92 51 152 62 25 4
47 8 50 9 3 0 11 -11 17 -27z m-2876 -249 c45 -57 45 -68 -8 -151 -18 -29 -33
-56 -33 -60 0 -18 -94 -98 -167 -142 l-78 -48 -85 4 c-95 4 -120 10 -120 27 0
21 43 42 90 43 107 4 305 137 326 220 8 33 -13 57 -45 51 -58 -12 -104 -26
-114 -36 -7 -7 -22 -3 -48 12 -22 12 -39 24 -39 27 0 10 60 41 103 54 23 7 78
14 123 15 67 2 82 -1 95 -16z m2549 -42 c20 -53 20 -64 9 -120 -14 -72 -4
-133 38 -239 28 -69 60 -102 127 -127 38 -15 48 -15 61 -5 36 30 -8 202 -68
268 l-21 23 33 32 32 32 21 -25 c25 -31 63 -106 72 -144 22 -92 10 -282 -20
-307 -17 -14 -57 -15 -109 -4 -57 12 -142 99 -184 190 -70 146 -97 308 -63
371 6 11 16 40 23 67 6 26 15 47 19 47 4 0 17 -26 30 -59z m-3025 14 c89 -24
195 -78 247 -128 46 -43 46 -45 25 -56 -12 -6 -29 -16 -37 -22 -12 -8 -24 -2
-57 29 -23 22 -72 54 -108 71 -121 57 -211 61 -229 8 -8 -21 -4 -32 20 -62 51
-65 50 -62 26 -88 l-23 -25 -39 35 c-37 34 -90 127 -90 159 0 23 41 64 65 64
11 1 34 7 50 15 40 18 79 18 150 0z m-291 -98 c30 -85 30 -116 1 -198 -15 -41
-29 -83 -32 -94 -8 -27 -85 -121 -128 -155 -35 -28 -105 -48 -125 -35 -5 3
-10 17 -10 31 0 20 5 24 28 24 16 0 43 13 64 30 37 31 128 169 128 195 0 7 5
17 10 20 21 13 7 133 -17 142 -36 14 -173 -71 -173 -106 0 -10 -9 -12 -31 -7
-17 3 -38 6 -45 6 -37 0 52 123 116 159 44 24 99 39 155 40 39 1 40 0 59 -52z
m927 27 c55 -20 94 -44 156 -96 46 -38 83 -74 83 -80 0 -6 13 -23 29 -37 34
-31 64 -86 81 -147 0 0 -17 -1 -39 -2 -32 -2 -41 2 -57 25 -26 39 -41 65 -53
88 -22 47 -97 115 -147 134 -28 11 -55 16 -61 13 -6 -4 -10 -27 -9 -51 1 -45
1 -45 -47 -63 -43 -16 -48 -16 -54 -2 -14 37 20 244 41 244 3 0 37 -12 77 -26z
m-541 -75 c18 -14 21 -22 12 -26 -13 -5 -33 -26 -137 -140 -61 -68 -157 -128
-215 -137 -64 -9 -78 3 -53 45 10 19 26 34 34 34 58 3 91 20 145 79 124 133
158 166 173 166 9 0 27 -10 41 -21z m928 -100 c33 -7 69 -23 97 -45 25 -19 49
-34 53 -34 10 -1 52 -69 52 -85 0 -14 -56 -62 -105 -89 -16 -9 -49 -28 -71
-41 -36 -21 -112 -42 -222 -62 -30 -5 -59 3 -102 28 -8 5 -25 13 -37 19 -28
12 -113 93 -113 107 0 6 15 15 33 18 17 4 38 12 45 18 9 7 17 5 27 -10 24 -34
83 -46 202 -40 134 7 226 38 231 78 2 20 -5 29 -36 47 -22 12 -59 25 -83 28
-32 5 -51 15 -67 35 -39 48 -29 51 96 28z m-263 -29 c10 -11 21 -17 26 -15 4
3 14 -8 22 -25 9 -16 12 -32 9 -34 -12 -7 -73 -18 -117 -21 -24 -2 -51 -8 -61
-14 -21 -12 -95 -32 -136 -37 -15 -2 -31 -5 -35 -6 -15 -5 -108 35 -130 56
-30 28 -29 38 7 64 36 27 45 27 81 2 45 -33 171 -22 254 22 62 33 58 32 80 8z
m-1335 -5 c19 -1 52 -10 72 -18 20 -8 39 -13 42 -10 6 7 46 -26 46 -37 0 -4
-8 -17 -17 -29 l-18 -21 -70 25 c-95 34 -231 33 -290 -2 -19 -11 -19 -13 15
-48 19 -20 45 -38 57 -41 13 -4 23 -7 23 -9 0 -1 -5 -16 -11 -33 -9 -28 -13
-30 -37 -21 -15 6 -56 36 -91 68 -56 50 -63 61 -58 84 15 57 154 112 252 101
28 -4 66 -8 85 -9z m-6 -101 c-1 -5 -9 -45 -17 -89 -9 -44 -18 -105 -22 -135
-10 -83 -22 -114 -59 -148 -33 -30 -34 -32 -35 -119 0 -48 -6 -115 -12 -149
-7 -33 -9 -77 -5 -97 6 -35 9 -37 44 -37 37 1 38 1 283 169 35 24 76 55 91 68
14 14 28 24 30 22 1 -1 22 8 44 19 47 24 94 28 245 19 109 -6 115 -8 189 -39
91 -39 113 -54 146 -98 43 -58 51 -90 28 -107 -23 -17 -54 -17 -54 0 0 27 -35
44 -89 46 -30 1 -60 6 -67 12 -7 6 -17 8 -23 5 -5 -4 -12 3 -16 14 -4 12 -18
23 -36 27 -16 3 -34 12 -40 19 -19 23 -189 17 -189 -7 0 -5 40 -9 89 -9 117 0
141 -9 169 -69 28 -60 28 -96 0 -135 -28 -40 -133 -126 -154 -126 -31 0 -84
32 -84 51 0 11 4 19 9 19 13 0 33 55 29 81 -3 22 -7 23 -118 25 -63 1 -124 3
-135 4 -36 2 -152 -58 -220 -114 -53 -44 -83 -76 -165 -175 -29 -35 -72 -84
-95 -108 -40 -42 -43 -43 -106 -43 -52 -1 -69 -5 -93 -24 l-29 -24 7 -128 c4
-76 3 -135 -3 -143 -7 -11 -19 -6 -60 30 -41 36 -50 50 -52 79 -1 19 -2 40 -3
45 -14 83 -16 116 -10 127 5 7 7 23 5 36 -3 27 21 57 61 78 15 8 29 23 33 34
3 11 13 20 21 20 20 0 65 73 69 113 4 43 -25 94 -61 107 -22 9 -25 14 -19 38
5 15 8 36 9 47 3 48 24 52 98 21 42 -18 64 -13 95 22 43 50 68 222 39 267 -9
13 -16 31 -16 40 0 9 -24 40 -53 69 -81 82 -175 106 -260 67 -46 -21 -126 -95
-143 -132 -40 -87 -66 -200 -68 -294 -1 -85 -3 -89 -64 -132 -35 -26 -51 -29
-53 -10 -8 84 -4 184 7 206 8 14 14 46 14 71 0 25 7 58 15 74 8 15 15 33 15
40 -1 53 132 217 210 260 55 30 131 56 167 56 48 0 131 -35 189 -79 90 -68
122 -40 175 154 l23 83 41 -2 c22 -1 39 -6 39 -12z m3556 -13 c16 -31 12 -53
-25 -127 -42 -87 -54 -157 -49 -297 3 -85 9 -120 29 -169 l25 -61 -32 -29
c-17 -15 -35 -28 -38 -28 -4 0 -13 19 -20 43 -8 23 -20 56 -28 72 -72 145 -41
392 70 558 42 62 52 67 68 38z m257 -334 c18 -35 14 -85 -12 -143 -50 -116
-97 -204 -130 -242 -34 -39 -120 -110 -164 -137 -9 -5 -28 -17 -43 -27 -15
-10 -34 -18 -41 -18 -8 0 -20 -7 -27 -15 -16 -20 -46 -19 -54 1 -15 40 -5 63
47 105 104 86 235 230 272 299 42 81 45 110 12 110 -21 0 -102 -24 -149 -44
-13 -6 -17 1 -23 35 -8 47 5 64 55 76 14 3 43 11 65 18 22 7 71 13 108 13 65
-1 68 -2 84 -31z m-3153 -97 c7 -7 -8 -10 -39 -11 -95 -2 -121 4 -95 22 17 12
120 3 134 -11z m-1195 -4 c43 -23 55 -73 48 -212 -7 -132 -9 -147 -31 -218 -8
-27 -13 -53 -10 -58 3 -4 2 -8 -3 -8 -4 0 -21 -28 -38 -61 -35 -70 -113 -149
-148 -149 -31 0 -103 63 -126 110 -21 45 -23 42 61 99 l47 31 3 -47 c2 -25 8
-48 15 -50 14 -5 60 39 66 64 48 173 69 281 64 330 -8 74 -29 97 -85 90 -23
-2 -44 -1 -47 3 -2 4 4 26 15 49 l20 41 61 0 c33 0 72 -6 88 -14z m3904 -76
c6 -49 3 -69 -13 -103 -35 -75 -50 -128 -50 -176 0 -58 32 -176 66 -244 27
-53 119 -157 138 -157 6 0 20 17 31 37 26 48 27 148 1 225 -21 64 -20 67 49
114 38 26 40 25 60 -43 35 -112 -43 -449 -104 -454 -72 -7 -120 13 -178 74
-44 46 -103 147 -103 177 0 6 -9 29 -21 52 -18 35 -21 59 -21 183 0 104 4 157
17 200 9 32 17 67 18 79 2 26 24 56 57 78 40 27 47 22 53 -42z m-4273 -71 c-6
-24 -15 -68 -20 -97 -6 -39 -15 -58 -34 -73 -14 -11 -26 -26 -26 -32 0 -7 -7
-25 -16 -42 -9 -16 -31 -69 -50 -116 -34 -86 -43 -139 -24 -139 11 0 78 70
100 106 8 13 18 24 22 24 3 0 24 17 45 38 21 21 73 62 115 92 43 30 92 65 109
78 48 33 58 29 52 -20 -7 -50 -18 -66 -70 -93 -79 -41 -243 -159 -243 -175 0
-3 -28 -35 -61 -70 -34 -36 -77 -87 -95 -115 -49 -72 -94 -129 -105 -133 -14
-5 -3 210 15 283 24 102 45 175 61 204 8 16 20 46 28 68 16 47 133 226 174
267 25 26 28 27 31 9 2 -11 -2 -39 -8 -64z m1902 -164 c3 -14 3 -37 0 -52 -5
-27 -6 -26 -17 12 -12 40 -10 65 5 65 4 0 10 -11 12 -25z m2217 -237 c13 -41
12 -43 -14 -65 -14 -13 -32 -23 -39 -23 -7 0 -26 -19 -43 -42 -79 -111 -114
-230 -109 -368 2 -47 0 -92 -5 -100 -11 -22 -75 -25 -83 -4 -3 8 -9 59 -12
113 -5 88 -3 106 22 182 29 88 88 190 145 249 42 44 109 100 118 100 4 0 14
-19 20 -42z m-2669 20 c0 -7 -15 -23 -33 -35 -56 -38 -66 -36 -29 6 37 40 62
52 62 29z m1130 -154 c0 -16 -6 -24 -18 -24 -22 0 -42 19 -42 40 0 13 7 15 30
12 24 -3 30 -9 30 -28z m-32 -149 c9 -8 13 -75 5 -75 -13 0 -36 29 -51 64 -12
28 -12 28 15 21 15 -3 29 -8 31 -10z m1492 -19 c92 -11 260 -96 295 -150 13
-20 14 -29 5 -48 -14 -26 -90 -108 -101 -108 -4 0 -37 -18 -73 -40 -36 -22
-83 -46 -103 -54 -42 -16 -244 -55 -366 -71 l-48 -6 3 58 c3 56 4 58 33 61
123 10 389 70 427 96 47 31 82 86 66 101 -25 22 -131 48 -195 48 -40 0 -43 1
-43 26 0 14 5 43 11 64 8 29 14 37 27 33 9 -3 37 -8 62 -10z m-4114 -45 c5 -5
42 -11 82 -15 40 -3 82 -10 92 -16 10 -5 27 -10 37 -10 36 -1 148 -66 244
-143 71 -56 103 -145 113 -314 3 -67 -3 -89 -19 -63 -4 6 -24 18 -46 27 -37
14 -39 18 -39 58 0 78 -53 198 -113 255 -77 73 -238 139 -342 139 -45 1 -62
-7 -66 -29 -5 -29 21 -97 52 -136 43 -54 167 -164 184 -164 20 0 19 -4 -10
-50 -24 -38 -26 -39 -52 -27 -16 6 -39 23 -53 37 -14 14 -43 39 -65 55 -21 17
-47 39 -57 50 -67 77 -98 118 -98 130 0 7 -11 36 -25 63 -32 64 -32 97 0 118
52 34 159 55 181 35z m3870 -17 c-3 -9 -6 -33 -6 -54 0 -35 -3 -40 -34 -51
-37 -13 -86 -80 -113 -152 -8 -23 -17 -87 -20 -142 -7 -135 17 -223 79 -295
48 -56 65 -61 96 -27 52 56 78 197 51 276 -6 18 -9 35 -6 38 3 3 26 8 52 10
l45 6 0 -120 c0 -183 -30 -272 -126 -371 -61 -63 -70 -62 -135 21 -22 29 -52
60 -65 71 -14 10 -38 45 -55 78 -28 56 -30 67 -34 201 -5 158 2 203 46 293 16
34 29 66 29 72 0 5 19 31 42 57 64 73 172 135 154 89z m-1216 -80 c0 -12 -5
-11 -26 2 -18 13 -22 19 -12 25 15 9 38 -7 38 -27z m-2275 -208 l26 -35 -43
-53 c-61 -75 -133 -194 -152 -251 -9 -26 -16 -79 -16 -118 0 -78 12 -92 57
-68 41 21 117 100 134 137 13 30 16 32 54 26 22 -3 41 -7 42 -8 2 -1 -8 -25
-21 -52 -36 -75 -158 -210 -216 -239 -53 -27 -112 -33 -127 -12 -15 18 -43
140 -43 185 0 50 35 182 60 227 68 120 192 295 210 295 5 0 21 -15 35 -34z
m508 -26 c-9 -20 -13 -47 -10 -76 3 -34 0 -47 -10 -51 -40 -16 -45 81 -7 126
33 40 47 40 27 1z m2688 -32 c-1 -5 -1 -28 -1 -53 0 -38 -3 -45 -20 -45 -28 0
-123 -97 -143 -145 -15 -37 -34 -132 -57 -291 -5 -34 -12 -68 -16 -78 -8 -22
-36 -20 -80 6 l-36 21 6 82 c8 119 15 162 39 230 36 103 95 190 155 227 68 42
154 68 153 46z m-2531 -83 c17 -9 30 -20 30 -25 0 -16 77 -122 122 -168 45
-45 52 -47 114 -21 28 11 37 10 84 -15 29 -15 54 -25 57 -23 2 3 21 1 41 -4
20 -5 144 -9 275 -9 144 0 254 -4 280 -10 46 -13 147 -61 147 -70 0 -4 14 -22
30 -40 29 -32 60 -111 60 -152 0 -14 -6 -17 -32 -12 -70 11 -77 15 -93 42 -35
58 -120 97 -178 81 -136 -37 -101 -270 51 -335 17 -8 32 -18 32 -23 0 -12 -47
-31 -99 -41 l-46 -8 -58 61 c-69 73 -130 186 -121 226 15 72 28 112 40 122 20
16 17 39 -4 39 -10 0 -22 3 -26 8 -4 4 -26 12 -48 17 -43 11 -201 -5 -243 -24
-20 -9 -84 -30 -108 -35 -7 -2 -23 -8 -37 -13 -41 -17 -131 -10 -180 14 -86
40 -115 51 -150 56 -65 10 -135 29 -145 40 -6 7 -19 17 -30 23 -11 6 -22 24
-23 40 -2 16 -7 34 -12 39 -12 16 -21 69 -12 81 4 6 19 14 33 17 22 6 30 1 50
-28 13 -19 31 -35 39 -35 24 -1 103 -39 130 -64 54 -50 100 -79 100 -64 0 21
-116 108 -177 133 -108 44 -130 100 -56 137 16 8 37 19 48 25 11 6 34 15 50
21 17 5 31 10 33 11 2 1 16 -6 32 -14z m-226 -53 c-10 -40 -22 -48 -30 -18 -4
16 -1 32 6 41 18 21 31 8 24 -23z m-399 -29 c88 -35 180 -86 227 -125 60 -51
108 -122 108 -160 0 -26 -3 -28 -45 -29 -25 -1 -51 -2 -57 -3 -13 -1 -14 3
-17 45 -1 25 -109 132 -147 146 -16 6 -71 24 -123 40 -52 16 -96 33 -98 39 -2
5 6 24 18 43 18 30 23 33 57 27 20 -4 55 -14 77 -23z m2812 -145 c-3 -13 -9
-43 -12 -68 -6 -39 -11 -47 -44 -62 -61 -29 -137 -100 -170 -159 -17 -31 -31
-64 -31 -73 0 -9 -4 -16 -8 -16 -15 0 -42 -105 -42 -162 0 -65 25 -150 51
-173 16 -15 20 -14 57 9 79 50 115 103 142 209 14 51 12 50 78 26 26 -10 26
-9 7 -83 -29 -110 -79 -193 -173 -286 -96 -95 -129 -101 -197 -39 -49 46 -63
88 -72 221 -7 107 22 221 100 393 58 128 187 265 251 265 12 0 28 5 36 10 24
16 33 12 27 -12z m325 -85 c85 -44 137 -99 199 -209 24 -44 16 -69 -36 -108
-85 -65 -343 -89 -469 -44 -34 12 -65 25 -70 30 -6 4 -16 8 -24 8 -8 0 -28 6
-45 14 -18 8 -49 20 -69 26 -44 13 -46 25 -15 71 20 29 29 34 59 32 20 -1 51
-11 70 -21 19 -11 50 -23 69 -27 19 -4 40 -12 47 -18 8 -6 66 -13 130 -15 108
-4 119 -3 145 18 15 12 27 29 27 37 0 22 -101 118 -146 139 l-35 17 6 51 c4
28 9 54 11 58 5 8 57 -13 146 -59z m-2457 -113 c59 -33 150 -51 220 -43 28 3
97 6 155 7 84 0 118 -5 173 -23 52 -18 67 -27 67 -42 0 -19 -7 -20 -177 -16
-174 3 -335 25 -357 47 -6 6 -16 10 -24 10 -17 0 -158 66 -187 87 -37 28 75 4
130 -27z m-240 -10 c35 -15 32 -14 68 -24 15 -5 27 -12 27 -17 0 -5 7 -9 16
-9 39 0 242 -236 221 -257 -3 -2 -34 7 -69 21 -36 14 -72 26 -81 26 -9 0 -24
12 -33 26 -25 38 -98 83 -157 98 -69 18 -248 13 -324 -9 -76 -22 -140 -61
-158 -95 -8 -15 -23 -30 -35 -33 -51 -13 8 -55 118 -82 70 -17 166 -17 233 0
22 6 28 2 37 -22 27 -66 25 -77 -12 -97 -39 -21 -156 -24 -217 -5 -19 5 -50
12 -70 15 -96 12 -217 105 -223 172 -5 55 87 156 188 206 100 50 204 88 256
96 67 10 181 4 215 -10z m2028 -19 c11 -1 8 -30 -7 -60 -12 -23 -25 -29 -80
-40 -79 -16 -133 -50 -177 -111 -17 -25 -33 -46 -34 -48 -4 -5 -55 24 -83 45
l-22 18 19 40 c26 54 136 129 211 144 83 16 108 18 173 12z m-643 -120 c41
-12 86 -25 100 -28 14 -3 54 -23 89 -45 34 -21 65 -38 68 -38 19 0 177 -133
202 -170 35 -51 38 -75 16 -146 -14 -45 -83 -134 -104 -134 -4 0 -16 -10 -27
-22 -45 -51 -226 -151 -296 -165 -18 -3 -46 -12 -62 -20 -39 -20 -112 -28
-231 -25 -132 2 -169 7 -237 31 -83 29 -175 98 -318 238 -140 137 -186 173
-280 219 -91 44 -145 57 -212 50 l-58 -6 -15 55 c-9 30 -14 59 -10 65 3 5 42
8 93 5 127 -5 297 -72 402 -156 19 -16 69 -56 110 -89 103 -84 97 -79 175
-136 78 -56 184 -115 259 -144 38 -15 58 -17 90 -10 23 5 70 14 105 20 35 6
71 15 80 19 15 8 57 30 104 54 35 19 130 92 159 123 31 34 66 135 60 176 -3
16 -14 33 -26 40 -11 6 -37 24 -57 39 -20 16 -44 29 -52 29 -9 0 -20 6 -24 13
-26 41 -176 76 -346 80 -42 1 -50 4 -63 28 -15 31 -18 61 -6 73 14 16 235 -1
312 -23z m-1450 -21 c6 -11 20 -50 31 -87 11 -38 26 -82 34 -98 8 -17 15 -42
17 -56 2 -14 11 -38 21 -52 9 -14 17 -29 17 -32 0 -3 11 -24 25 -46 25 -38
105 -99 131 -99 15 0 29 75 26 143 -1 43 1 48 18 42 37 -12 112 -58 117 -72
15 -38 -55 -255 -89 -276 -11 -7 -26 -6 -51 6 -19 9 -41 17 -49 17 -15 0 -113
91 -171 160 -75 86 -122 196 -166 383 -19 82 -17 87 34 87 34 0 47 -5 55 -20z
m928 -7 c21 -46 15 -59 -38 -84 -27 -13 -50 -27 -50 -31 0 -12 71 -65 123 -91
94 -47 219 -58 284 -24 46 25 103 82 103 104 0 30 24 47 49 34 11 -6 31 -12
45 -13 26 -2 37 -30 16 -43 -5 -3 -10 -20 -10 -36 0 -22 -12 -43 -44 -77 -42
-45 -65 -56 -175 -89 -26 -7 -215 18 -256 34 -128 50 -189 81 -257 126 -53 35
-58 42 -58 75 0 73 39 109 135 129 91 19 118 16 133 -14z m720 -208 c34 -35
22 -57 -51 -92 -52 -26 -75 -31 -147 -32 l-85 -2 48 49 c42 43 55 50 100 55
32 4 59 14 71 27 26 26 36 25 64 -5z"/>
<path d="M6809 3769 c-21 -23 -41 -57 -45 -75 -7 -36 1 -95 16 -123 17 -31 29
-82 24 -96 -3 -8 0 -31 7 -52 7 -21 14 -40 14 -43 5 -18 47 -100 54 -104 4 -3
8 27 7 67 -1 66 3 79 44 162 37 75 45 101 48 160 3 61 1 75 -20 105 -20 30
-30 35 -67 38 -39 3 -46 0 -82 -39z m79 -113 c3 -20 0 -27 -10 -24 -7 3 -14
17 -16 32 -3 20 0 27 10 24 7 -3 14 -17 16 -32z"/>
<path d="M6755 3132 c-47 -11 -75 -62 -75 -136 1 -34 5 -81 10 -106 10 -55 -7
-171 -44 -290 -19 -61 -26 -102 -24 -144 3 -56 5 -61 35 -79 29 -16 35 -17 60
-4 40 21 59 45 78 102 34 101 14 175 -56 204 -39 16 -39 17 -33 56 3 22 8 42
10 44 3 3 19 -3 36 -13 19 -12 51 -19 84 -19 54 -1 56 -4 26 -40 -18 -20 -12
-30 12 -21 26 10 45 56 58 141 16 103 15 127 -6 195 -29 90 -88 128 -171 110z
m120 -162 c22 -43 19 -67 -14 -86 -16 -10 -34 -28 -40 -41 -15 -32 -32 -25
-55 23 -24 49 -25 90 -3 136 l17 36 40 -19 c22 -11 46 -33 55 -49z"/>
<path d="M3110 8250 c-161 -6 -222 -14 -319 -40 -20 -5 -97 -23 -171 -40 -74
-17 -164 -38 -200 -46 -119 -28 -185 -46 -218 -60 -18 -8 -37 -14 -43 -14 -6
0 -25 -6 -42 -14 -18 -7 -61 -24 -96 -36 -56 -21 -160 -86 -476 -300 -121 -82
-412 -316 -478 -385 -22 -22 -53 -60 -70 -85 -17 -25 -61 -84 -97 -132 -36
-48 -88 -118 -116 -157 -70 -95 -320 -526 -343 -592 -11 -30 -28 -76 -39 -104
-104 -270 -147 -397 -168 -490 -14 -60 -29 -123 -34 -140 -5 -16 -11 -41 -14
-55 -2 -14 -9 -45 -16 -70 -7 -25 -14 -54 -17 -65 -9 -43 -32 -215 -43 -325
-6 -63 -18 -169 -27 -235 -13 -98 -15 -180 -10 -450 8 -470 24 -574 178 -1212
29 -120 80 -271 135 -401 8 -18 14 -39 14 -46 0 -31 191 -396 247 -471 52 -70
132 -182 260 -364 90 -128 201 -256 286 -330 51 -44 121 -114 156 -155 118
-140 471 -463 614 -563 129 -90 335 -200 467 -249 36 -14 74 -29 85 -34 11 -4
72 -27 135 -50 63 -23 124 -46 135 -50 11 -5 70 -28 130 -51 61 -23 133 -50
160 -61 28 -11 79 -30 115 -43 36 -13 112 -42 170 -65 58 -22 116 -43 129 -46
14 -3 27 -7 31 -9 8 -5 100 -24 302 -65 103 -20 205 -33 340 -40 194 -12 671
-9 718 3 14 4 63 14 110 22 47 8 105 19 130 24 25 5 86 17 135 26 50 9 104 23
122 31 17 8 39 14 48 14 9 0 24 4 33 9 9 5 31 11 47 14 17 3 46 11 65 17 19 6
42 13 51 15 22 5 224 61 284 80 81 24 257 72 292 80 67 14 43 25 -54 25 -54 0
-210 7 -348 15 -137 8 -311 15 -385 15 -74 0 -151 4 -170 9 -19 6 -52 12 -73
15 -69 11 -128 27 -351 97 -192 61 -234 78 -335 137 -63 37 -119 69 -124 71
-5 2 -59 34 -120 72 -114 70 -223 158 -360 289 -90 86 -213 263 -247 355 -12
33 -25 64 -29 70 -5 5 -27 62 -50 125 -23 63 -47 125 -52 138 -48 118 -80 222
-94 302 -9 52 -23 133 -32 180 -33 184 -27 381 15 540 11 41 32 122 47 179 15
58 46 145 70 195 23 50 57 124 74 164 44 101 87 178 131 237 89 119 262 310
340 377 76 66 191 148 205 148 17 0 528 343 633 424 74 58 188 175 351 361
130 149 132 152 238 360 137 272 148 314 179 671 8 86 -12 347 -31 424 -8 30
-26 102 -40 160 -30 125 -71 237 -154 420 -125 273 -186 371 -317 511 -39 43
-89 98 -110 124 -70 84 -219 177 -536 336 -163 82 -310 151 -325 153 -28 3
-93 15 -233 41 -191 35 -266 45 -420 56 -91 6 -174 12 -185 13 -11 1 -99 0
-195 -4z m545 -106 c105 -14 204 -27 220 -29 55 -8 143 -35 242 -76 54 -22
123 -50 153 -62 100 -39 374 -200 473 -278 87 -69 217 -192 217 -206 0 -7 17
-32 38 -56 50 -54 151 -230 192 -332 17 -44 38 -96 46 -115 14 -37 49 -150 64
-210 33 -129 63 -259 65 -280 1 -14 5 -33 9 -42 8 -18 13 -298 8 -417 -2 -38
-11 -77 -22 -99 -11 -19 -17 -39 -14 -43 3 -5 -3 -23 -13 -41 -9 -18 -18 -40
-20 -49 -6 -34 -93 -239 -136 -319 -25 -46 -65 -112 -90 -145 -24 -33 -54 -79
-65 -102 -12 -22 -25 -43 -29 -45 -5 -1 -57 -57 -117 -123 -103 -113 -187
-195 -200 -195 -3 0 -63 -38 -133 -84 -177 -115 -256 -160 -370 -207 -204 -85
-433 -142 -619 -153 -120 -8 -296 7 -414 35 -47 11 -96 22 -110 25 -42 8 -252
96 -313 132 -31 18 -73 40 -93 48 -47 20 -128 78 -194 140 -125 117 -124 116
-137 97 -19 -25 -16 -83 6 -119 24 -40 73 -70 136 -84 27 -6 54 -15 60 -19 5
-5 25 -11 44 -15 69 -13 288 -165 343 -239 14 -18 37 -53 52 -79 l27 -46 62
28 c53 25 189 61 237 62 224 6 466 21 540 34 127 20 123 20 140 26 8 3 33 11
55 18 22 6 46 14 53 16 6 3 12 1 12 -6 0 -6 -31 -25 -70 -42 -38 -17 -70 -34
-70 -39 0 -4 -22 -21 -50 -38 -27 -17 -50 -35 -50 -40 0 -5 -47 -59 -105 -121
-58 -62 -105 -117 -105 -122 0 -21 -225 -349 -287 -418 -71 -79 -124 -131
-174 -168 l-56 -42 -6 -118 c-3 -64 -13 -162 -21 -217 -35 -230 -27 -586 16
-697 29 -78 31 -88 20 -88 -15 0 -52 17 -87 40 -16 11 -39 24 -50 29 -37 16
-259 232 -294 285 -9 13 -35 51 -59 85 -38 54 -109 189 -125 238 -4 10 -16 45
-27 78 -11 33 -20 74 -20 91 0 17 -7 48 -15 68 -10 24 -17 82 -20 178 l-4 141
-64 66 c-75 78 -192 219 -229 277 -44 68 -115 217 -121 254 -4 19 -14 64 -22
100 -49 205 -67 338 -71 515 -2 108 2 148 31 290 19 97 34 175 39 210 2 17 8
50 12 75 11 75 7 230 -8 247 -9 11 -13 48 -13 112 -1 104 8 132 88 276 18 33
41 89 52 125 25 83 88 206 125 245 32 33 65 51 150 84 52 20 58 20 105 7 37
-11 63 -29 101 -68 27 -29 57 -66 65 -82 14 -29 14 -29 17 -5 16 160 44 257
105 364 41 71 151 194 219 244 33 25 41 27 90 20 29 -4 171 -8 315 -8 l261 -1
75 -30 c78 -31 125 -38 143 -20 17 17 88 -53 128 -125 42 -75 46 -78 106 -85
40 -4 45 -8 48 -33 2 -15 -6 -42 -17 -60 -16 -27 -17 -35 -6 -50 7 -10 27 -22
43 -27 36 -10 87 12 133 56 21 20 30 24 33 13 29 -91 37 -126 42 -199 5 -71 2
-95 -15 -144 -40 -112 -149 -260 -265 -355 -101 -83 -131 -94 -261 -93 -60 0
-112 1 -114 1 -2 1 3 9 11 19 9 9 26 41 38 70 21 48 29 56 78 78 l54 24 -19
32 c-17 30 -25 34 -84 40 -97 11 -130 -2 -223 -88 -45 -41 -107 -105 -139
-142 -46 -53 -57 -73 -55 -96 3 -27 0 -30 -34 -32 -28 -3 -38 1 -43 15 -3 10
-17 24 -30 31 -30 16 -31 24 -5 50 30 30 26 59 -11 74 -45 19 -125 -7 -151
-49 -22 -36 -24 -119 -3 -155 22 -39 18 -42 -27 -19 -151 77 -311 262 -374
432 l-23 62 0 -76 c-1 -42 4 -101 9 -130 6 -30 13 -67 15 -84 3 -16 11 -59 18
-95 26 -121 17 -310 -15 -310 -4 0 -8 -11 -8 -25 0 -14 -4 -25 -10 -25 -5 0
-10 -9 -10 -21 0 -32 91 -120 180 -173 99 -59 284 -135 354 -146 28 -4 78 -13
110 -20 33 -6 82 -9 110 -6 28 3 58 5 66 5 61 -2 110 1 140 10 19 5 64 17 100
27 73 20 176 70 265 129 77 51 217 171 232 198 9 18 44 243 43 285 0 19 -61
13 -95 -9 -16 -10 -37 -22 -45 -25 -8 -4 -61 -40 -117 -81 -56 -40 -106 -73
-111 -73 -5 0 -12 -6 -15 -14 -8 -19 -128 -76 -160 -76 -14 0 -28 -4 -31 -9
-3 -4 -31 -16 -63 -24 -72 -21 -158 -10 -184 21 -17 21 -56 43 -144 82 -53 23
-105 66 -105 86 0 6 -7 18 -16 25 -28 23 -74 113 -74 144 0 17 6 41 13 55 12
24 67 58 95 60 14 0 16 -36 2 -45 -12 -7 -13 -55 -2 -71 4 -6 16 -14 28 -18
12 -3 26 -18 33 -32 10 -22 16 -25 40 -21 16 4 44 2 61 -3 l33 -9 -6 41 c-8
60 6 85 92 169 43 41 86 88 96 103 36 54 161 90 223 63 31 -14 28 -26 -11 -42
-42 -17 -87 -73 -87 -109 0 -7 -9 -24 -19 -38 -11 -13 -21 -37 -23 -53 l-3
-28 135 -1 c122 0 140 2 185 23 82 40 157 104 256 221 35 41 66 77 70 80 3 3
10 15 14 28 13 44 129 104 179 93 5 -1 22 3 38 10 l29 12 -6 86 c-4 47 -8 104
-10 126 -6 95 -11 114 -75 250 -60 131 -99 188 -116 174 -8 -6 -14 -25 -14
-41 0 -17 -8 -42 -19 -56 -10 -15 -21 -45 -24 -66 -9 -57 -71 -118 -144 -140
-28 -9 -30 10 -6 52 14 25 15 35 5 69 -11 38 -15 41 -57 46 -53 5 -77 24 -104
81 -11 22 -47 68 -80 100 l-61 60 -32 -15 c-34 -16 -86 -16 -97 -2 -3 4 -22
15 -41 23 -27 11 -104 16 -345 20 -335 6 -344 7 -414 65 -34 29 -94 113 -94
133 0 6 -4 12 -8 12 -3 0 -9 10 -12 21 -5 18 -11 20 -34 15 -15 -3 -52 -10
-82 -16 -29 -5 -58 -13 -65 -18 -6 -5 -29 -13 -51 -17 -61 -10 -183 -60 -280
-112 -11 -6 -60 -30 -109 -53 -96 -45 -231 -133 -349 -227 -114 -90 -353 -336
-436 -448 -28 -38 -64 -86 -80 -105 -27 -34 -137 -204 -197 -303 -54 -91 -61
-102 -94 -162 -85 -155 -119 -231 -165 -359 -23 -67 -54 -155 -70 -196 -38
-105 -71 -215 -85 -285 -7 -33 -19 -87 -26 -120 -15 -62 -25 -135 -45 -310
-11 -94 -8 -354 5 -500 3 -33 10 -114 16 -180 6 -66 15 -124 20 -129 6 -6 10
-30 10 -55 0 -24 6 -67 14 -95 14 -49 26 -97 61 -256 65 -289 262 -690 419
-853 25 -26 57 -64 70 -85 13 -20 36 -48 51 -62 15 -14 59 -58 99 -99 71 -73
259 -221 281 -221 6 0 22 -11 35 -25 13 -14 27 -25 32 -25 5 0 18 -9 29 -19
65 -60 393 -187 609 -235 41 -10 103 -24 137 -32 34 -7 77 -14 95 -14 33 0 34
1 47 63 17 77 47 146 95 216 20 29 36 56 36 60 0 5 10 16 21 27 12 10 38 44
59 74 21 30 74 91 119 134 70 69 81 77 87 60 7 -18 30 -56 120 -194 47 -72
165 -305 214 -420 17 -41 35 -84 40 -95 29 -63 94 -227 106 -266 10 -31 23
-50 41 -60 39 -20 176 -109 260 -168 39 -28 76 -51 81 -51 5 0 12 -6 15 -12 3
-7 27 -24 53 -38 27 -14 58 -33 69 -43 11 -10 36 -27 56 -37 20 -11 50 -33 67
-50 17 -16 35 -30 41 -30 6 0 11 -4 11 -9 0 -10 188 -108 281 -146 35 -14 78
-32 94 -39 17 -8 41 -18 55 -24 14 -5 41 -17 60 -25 54 -23 317 -72 443 -81
76 -6 385 -9 407 -4 8 2 16 -5 18 -14 2 -11 -2 -18 -11 -18 -8 0 -41 -16 -73
-35 -32 -19 -62 -35 -66 -35 -5 0 -41 -15 -81 -33 -79 -37 -144 -56 -227 -67
-30 -5 -77 -13 -105 -18 -27 -6 -99 -18 -160 -27 -60 -9 -138 -20 -171 -25
-82 -13 -559 -13 -659 0 -242 32 -367 62 -612 149 -111 39 -207 71 -212 71
-18 0 -327 160 -348 180 -26 24 -77 36 -178 44 -79 7 -151 24 -210 51 -16 8
-79 35 -140 61 -60 25 -114 50 -120 54 -5 4 -38 16 -72 28 -66 22 -193 102
-328 207 -85 67 -265 247 -265 265 0 6 -11 26 -25 44 -14 18 -25 36 -25 40 0
29 -227 274 -350 379 -105 90 -325 306 -358 352 -19 27 -50 66 -68 85 -36 39
-100 142 -150 240 -64 124 -126 261 -134 293 -4 18 -20 64 -35 102 -81 215
-207 609 -220 688 -2 16 -10 47 -18 70 -8 23 -20 74 -27 112 -6 39 -18 106
-25 149 -8 43 -17 112 -20 153 -3 40 -10 84 -14 96 -5 13 -12 129 -15 258 -6
208 -3 286 18 534 3 33 8 98 11 145 3 47 10 101 15 120 5 19 11 55 14 80 2 25
9 66 15 91 6 25 12 61 15 80 2 19 9 52 14 74 6 22 13 51 16 65 29 168 73 304
206 640 23 58 52 132 64 166 13 33 49 105 82 160 32 54 63 108 69 119 42 76
139 221 224 334 31 40 67 90 81 111 44 67 272 300 370 378 52 42 104 84 114
94 11 10 22 18 25 18 4 0 44 29 91 65 210 161 383 265 546 326 56 21 125 49
155 63 54 25 229 82 281 91 15 3 39 10 53 15 15 6 41 10 60 10 19 0 36 4 39 9
6 10 117 26 151 22 11 -1 45 5 75 13 41 11 117 15 295 15 204 1 268 -3 430
-25z"/>
<path d="M2950 8082 c-13 -2 -33 -10 -44 -18 -11 -8 -30 -14 -41 -14 -12 0
-44 -11 -72 -25 -28 -13 -63 -27 -77 -31 -14 -3 -29 -10 -32 -16 -3 -5 -16
-13 -27 -18 -38 -15 -186 -138 -216 -181 -30 -41 -49 -127 -37 -166 10 -31
101 -118 179 -170 102 -70 195 -123 215 -123 9 0 30 -7 47 -16 40 -20 170 -36
275 -32 83 3 85 4 88 29 2 14 -5 36 -15 48 -16 20 -29 22 -127 27 -60 2 -114
8 -120 13 -12 9 -57 22 -93 26 -12 2 -37 14 -55 26 -18 13 -38 24 -45 25 -27
4 -133 96 -133 115 0 50 42 147 78 181 120 115 297 195 440 200 77 3 81 2 169
-44 100 -52 196 -115 288 -190 108 -88 135 -109 178 -142 122 -92 288 -156
407 -156 43 0 81 4 84 9 3 5 -1 31 -9 59 l-15 51 -68 -1 c-75 -1 -153 22 -245
72 -56 31 -213 167 -311 269 -50 52 -201 161 -224 161 -7 0 -27 8 -45 17 -26
14 -64 17 -202 18 -93 1 -181 -1 -195 -3z"/>
<path d="M3982 7947 c-18 -21 -54 -119 -72 -194 -17 -71 -17 -72 4 -91 22 -21
99 -62 115 -62 5 0 9 24 8 53 -1 74 5 127 15 133 27 17 168 -108 168 -149 0
-9 4 -18 9 -21 5 -3 25 -56 45 -118 71 -215 60 -198 117 -198 27 0 49 2 49 5
0 2 -5 28 -10 57 -24 122 -62 236 -106 314 -44 80 -203 242 -244 250 -16 4
-35 13 -41 20 -14 17 -43 18 -57 1z"/>
<path d="M2119 7847 c-85 -59 -176 -165 -213 -248 -22 -50 -52 -167 -44 -173
11 -9 72 -25 79 -20 5 2 13 24 19 47 25 97 57 143 137 198 55 36 63 32 93 -54
24 -68 26 -151 4 -209 -62 -166 -120 -243 -226 -300 -45 -25 -51 -32 -54 -65
-2 -21 -6 -50 -10 -66 -5 -26 -4 -27 23 -22 15 4 55 20 88 36 96 48 181 169
246 351 17 46 32 90 34 98 2 8 9 37 15 63 14 52 9 154 -11 247 -9 43 -20 61
-58 96 -53 50 -74 54 -122 21z"/>
<path d="M3031 7652 c-58 -22 -136 -100 -145 -144 -14 -69 -14 -70 34 -84 25
-8 46 -14 48 -14 1 0 11 20 22 44 19 44 77 95 130 111 44 14 114 14 166 -1 84
-23 214 -99 214 -125 0 -4 -25 -19 -56 -34 -30 -14 -54 -29 -52 -33 2 -4 10
-24 18 -45 13 -36 17 -38 45 -32 16 3 53 9 80 12 28 3 56 11 64 16 7 6 23 16
34 22 27 13 47 51 47 91 0 25 -9 39 -47 70 -25 21 -62 44 -82 51 -20 7 -37 17
-39 23 -2 5 -11 10 -21 10 -9 0 -21 4 -26 9 -6 5 -44 21 -85 36 -98 35 -279
44 -349 17z"/>
<path d="M2785 7642 c-63 -22 -115 -58 -115 -80 1 -9 16 -24 34 -33 31 -14 35
-14 56 3 13 11 39 18 64 18 36 0 48 7 94 51 28 28 52 52 52 55 0 12 -141 1
-185 -14z"/>
<path d="M4455 7642 c-10 -2 -30 -11 -43 -20 -18 -12 -22 -21 -17 -41 10 -44
27 -81 35 -76 16 10 88 18 156 18 86 -1 168 -23 209 -58 28 -23 29 -25 10 -31
-11 -3 -32 -22 -46 -42 -23 -34 -94 -80 -130 -85 -8 -2 -20 -6 -26 -10 -7 -5
-17 -6 -22 -2 -5 3 -12 1 -16 -5 -10 -17 -231 -12 -297 6 -32 9 -58 21 -58 25
0 5 -5 9 -12 9 -7 0 -30 17 -53 38 -22 22 -62 47 -90 56 -27 10 -63 24 -78 33
-16 8 -31 12 -34 9 -12 -12 44 -101 101 -160 77 -79 145 -122 244 -152 83 -26
117 -30 127 -14 3 5 12 7 21 3 18 -7 132 16 140 28 3 5 13 9 23 9 29 0 200 88
244 125 50 43 86 101 87 138 0 37 -61 112 -111 138 -83 42 -292 77 -364 61z"/>
<path d="M3113 7530 c-43 -19 -57 -40 -27 -40 31 0 106 -73 131 -129 21 -45
24 -65 20 -109 -7 -63 -23 -85 -77 -101 -56 -16 -115 1 -157 46 -18 19 -33 38
-33 42 0 5 -15 11 -32 15 -18 3 -46 9 -62 12 l-29 7 7 -42 c3 -24 16 -61 27
-83 24 -48 82 -108 104 -108 8 0 15 -5 15 -11 0 -5 16 -17 35 -25 27 -11 91
-14 297 -14 277 -1 347 -9 421 -48 l39 -21 44 22 44 21 66 -64 c36 -36 72 -80
81 -98 9 -18 29 -47 44 -63 26 -28 33 -30 66 -24 52 10 140 56 150 80 16 36 3
56 -54 81 -30 13 -82 47 -116 75 -34 28 -70 57 -79 65 -20 16 -25 39 -5 28 21
-13 91 -66 122 -94 17 -15 51 -35 77 -45 26 -10 54 -28 63 -42 12 -18 24 -23
43 -21 23 3 27 8 30 42 2 21 -1 43 -7 49 -6 6 -11 22 -11 35 0 14 -14 36 -37
57 -35 32 -95 52 -187 62 -16 2 -50 15 -75 29 -59 33 -144 55 -184 47 -18 -3
-63 -16 -102 -29 -162 -54 -283 -71 -347 -48 -24 9 -50 17 -58 18 -17 3 -27
36 -12 36 15 0 42 88 42 138 0 33 -9 59 -31 96 -33 54 -102 143 -128 164 -21
17 -69 15 -118 -8z"/>
<path d="M2520 7403 c-33 -50 -69 -83 -102 -95 -16 -6 -28 -14 -28 -19 0 -5
-21 -9 -47 -9 -58 0 -68 -6 -92 -53 -30 -59 -6 -67 132 -46 40 6 83 16 97 22
48 23 131 94 150 129 l18 35 -49 36 c-26 21 -50 37 -51 37 -2 0 -14 -17 -28
-37z"/>
<path d="M1520 7394 c-30 -9 -60 -16 -67 -17 -21 -1 -93 -74 -93 -94 0 -28 71
-131 127 -184 61 -59 211 -138 234 -123 5 3 9 29 9 57 -1 50 -2 53 -40 77 -22
13 -40 28 -40 32 0 4 -6 8 -14 8 -19 0 -76 69 -76 92 0 63 179 74 345 21 28
-9 55 -19 60 -23 6 -4 31 -14 57 -23 l47 -16 25 30 c23 27 42 67 34 73 -4 4
-107 43 -193 72 -94 33 -330 43 -415 18z"/>
<path d="M1781 7191 c-11 -78 -34 -213 -46 -266 -18 -83 -87 -169 -146 -182
-21 -4 -28 -12 -33 -42 -3 -20 -6 -44 -6 -53 0 -51 155 14 218 90 52 64 75
106 100 183 26 81 31 112 38 225 7 102 10 98 -72 113 l-42 8 -11 -76z"/>
<path d="M3420 7245 c0 -16 12 -24 58 -37 112 -33 178 -41 269 -33 178 16 201
13 283 -27 74 -36 140 -54 140 -38 0 5 -42 28 -92 53 -157 75 -342 111 -539
105 -112 -3 -119 -4 -119 -23z"/>
<path d="M4920 7255 c-68 -21 -209 -167 -250 -257 l-19 -43 37 -13 c32 -11 38
-11 47 4 52 85 71 107 117 138 29 20 58 36 65 36 33 0 28 -159 -7 -236 -28
-60 -80 -141 -135 -209 l-45 -55 25 -40 c14 -22 27 -40 30 -40 16 0 185 243
222 320 30 62 43 126 43 204 0 109 -8 147 -32 154 -15 3 -18 10 -14 28 5 20 3
24 -16 23 -13 0 -43 -7 -68 -14z"/>
<path d="M1240 7169 c-57 -60 -87 -112 -108 -189 -18 -64 -26 -196 -17 -256
l6 -42 42 5 c54 7 60 13 46 49 -16 42 -14 135 5 192 9 27 32 63 51 82 l35 34
49 -48 c41 -41 51 -58 68 -123 24 -88 23 -252 -1 -321 -23 -63 -74 -135 -109
-153 -28 -14 -33 -22 -38 -65 -3 -27 -4 -52 -2 -56 13 -23 176 112 189 156 3
11 19 49 35 84 30 65 33 77 45 195 14 136 -28 312 -86 360 -14 12 -41 42 -60
67 -42 53 -70 79 -88 80 -7 0 -35 -23 -62 -51z"/>
<path d="M4423 7117 c-51 -8 -53 -10 -47 -35 25 -107 180 -228 373 -291 69
-23 75 -21 104 28 17 29 17 30 -3 41 -25 13 -152 55 -197 65 -45 9 -149 114
-157 160 -4 19 -10 36 -14 38 -4 2 -31 -1 -59 -6z"/>
<path d="M4566 6767 c6 -156 31 -233 96 -296 18 -18 47 -40 63 -48 17 -8 41
-25 55 -37 73 -64 330 -128 445 -110 55 8 109 42 113 71 2 12 -8 46 -21 75
-14 29 -28 62 -31 74 -9 31 -105 139 -161 181 -28 21 -63 50 -79 66 -16 15
-36 27 -45 27 -21 0 -69 -72 -52 -78 20 -7 123 -95 164 -141 21 -23 45 -59 54
-79 8 -20 19 -44 23 -52 4 -8 3 -25 -1 -38 -8 -20 -15 -22 -78 -22 -38 0 -73
5 -76 10 -4 6 -12 10 -18 9 -42 -7 -152 46 -220 107 -69 61 -116 154 -124 245
l-6 60 -50 25 c-28 13 -52 24 -52 24 -1 0 -1 -33 1 -73z"/>
<path d="M4316 6794 c-10 -27 -7 -56 7 -52 14 5 23 68 9 68 -6 0 -13 -7 -16
-16z"/>
<path d="M4255 6731 c-3 -6 -3 -28 1 -50 4 -27 1 -49 -10 -72 -22 -45 -14 -46
23 -4 31 35 37 65 25 113 -6 22 -28 30 -39 13z"/>
<path d="M1325 6693 c-142 -13 -339 -60 -395 -95 -25 -15 -58 -35 -75 -44 -53
-30 -123 -95 -136 -125 -11 -28 -10 -32 22 -65 51 -52 149 -103 252 -129 84
-22 93 -22 105 -7 6 9 12 30 12 46 0 17 3 41 6 54 6 20 4 22 -17 14 -13 -4
-28 -8 -34 -7 -43 5 -175 44 -188 55 -10 9 7 46 36 77 32 36 141 69 317 97 90
15 168 32 172 39 4 7 8 31 8 55 0 46 7 43 -85 35z"/>
<path d="M1146 6532 c-2 -4 -4 -57 -4 -117 2 -189 -60 -338 -170 -412 -20 -14
-39 -27 -41 -29 -8 -8 22 -84 34 -84 22 0 161 147 198 209 60 101 82 180 81
291 0 137 -5 150 -54 150 -21 0 -41 -4 -44 -8z"/>
<path d="M4615 6449 c-4 -11 -4 -71 0 -133 4 -62 4 -122 1 -134 -8 -23 -30
-31 -104 -37 -65 -6 -99 -31 -197 -147 -201 -239 -324 -316 -474 -295 -45 6
-78 5 -104 -3 -54 -16 -77 -6 -77 33 0 18 9 46 20 62 28 42 25 50 -19 63 -58
18 -68 16 -125 -30 -100 -81 -115 -125 -72 -215 29 -59 39 -63 171 -73 l90 -7
-90 -1 c-102 -2 -160 10 -175 37 -12 23 -99 46 -139 38 -29 -6 -61 16 -61 42
0 18 -26 24 -49 11 -28 -14 -26 -30 7 -91 31 -59 49 -73 158 -121 84 -37 89
-38 299 -40 94 0 104 2 157 31 32 17 65 38 75 47 10 8 63 46 118 84 55 38 112
78 127 89 14 12 33 21 41 21 8 0 20 7 27 16 8 9 25 14 44 12 42 -4 54 -47 37
-131 -6 -34 -13 -104 -15 -155 -4 -88 -6 -93 -35 -118 -35 -29 -61 -103 -61
-172 0 -24 -6 -67 -14 -95 -27 -99 -28 -114 -3 -119 54 -9 61 -1 87 90 53 194
77 212 185 137 89 -62 158 -78 241 -55 138 38 250 145 315 305 29 71 61 349
45 392 -4 11 -20 2 -61 -34 l-55 -48 0 -74 c0 -95 -19 -173 -70 -283 -38 -84
-135 -148 -220 -147 -72 2 -96 11 -154 57 -74 59 -100 114 -102 212 0 41 3 84
7 95 4 11 10 32 13 46 3 14 18 38 33 53 30 30 54 31 128 3 22 -8 42 -14 43
-12 2 2 9 27 16 57 l12 53 -39 35 c-75 68 -54 144 69 249 61 52 75 69 73 90
-1 14 1 33 5 43 4 9 3 42 -3 74 -6 32 -11 72 -11 89 0 24 -11 42 -48 78 -26
26 -51 47 -54 47 -4 0 -10 -9 -13 -21z"/>
<path d="M2360 6421 c-63 -23 -122 -65 -144 -103 -10 -18 -27 -42 -36 -53 -18
-21 -57 -114 -65 -152 -4 -23 -47 -130 -67 -168 -47 -87 -56 -105 -54 -105 2
0 -2 -32 -9 -70 -13 -74 -5 -151 20 -200 16 -33 10 -153 -16 -295 -11 -60 -21
-119 -21 -130 0 -11 -7 -41 -14 -66 -8 -25 -17 -57 -20 -70 -7 -32 -22 -262
-18 -270 2 -3 5 -35 8 -70 3 -35 7 -71 10 -79 3 -8 8 -44 11 -80 6 -76 10
-101 25 -155 5 -22 15 -61 20 -87 5 -26 18 -66 29 -89 11 -23 19 -44 17 -48
-2 -3 4 -22 14 -41 10 -19 31 -62 47 -95 41 -82 153 -236 227 -313 63 -66 165
-139 226 -162 19 -7 40 -17 45 -20 6 -4 28 -11 50 -15 22 -4 45 -11 51 -16 16
-13 107 -23 139 -15 l26 7 -3 92 c-4 103 -9 117 -42 117 -34 0 -175 54 -247
95 -137 78 -220 142 -265 203 -128 175 -192 349 -179 481 13 126 54 137 251
69 115 -39 203 -82 264 -126 38 -28 150 -140 150 -151 0 -3 4 -12 9 -20 7 -11
21 -6 69 25 57 37 75 65 52 79 -6 4 -19 24 -30 45 -35 68 -185 198 -280 242
-19 9 -73 26 -118 38 -94 25 -192 84 -224 134 -15 24 -18 42 -13 79 6 50 20
91 41 117 22 29 23 65 3 133 -28 89 -24 188 9 234 17 24 31 32 64 35 52 6 112
-25 134 -67 21 -40 28 -99 15 -123 -6 -12 -9 -33 -5 -46 5 -22 9 -24 31 -15
13 5 29 7 34 3 10 -6 11 -3 15 74 2 36 13 74 33 114 17 33 31 64 31 70 0 5 11
24 25 42 14 18 25 41 25 50 0 10 4 25 10 35 9 18 2 76 -39 306 -11 61 -22 153
-25 205 -6 118 -33 255 -57 295 -23 39 -77 90 -86 82 -3 -4 6 -20 20 -35 34
-35 36 -56 5 -46 l-23 6 22 -23 c48 -52 71 -141 83 -314 4 -66 10 -130 13
-142 10 -39 -12 -36 -57 5 -24 23 -63 50 -87 62 -41 21 -43 21 -56 4 -24 -33
-16 -52 26 -64 45 -12 127 -93 161 -160 37 -72 30 -173 -15 -210 -19 -16 -41
-6 -98 45 -75 67 -113 149 -121 259 -3 50 3 80 40 192 38 117 44 143 44 226 1
55 -5 117 -14 151 -9 32 -16 59 -16 61 0 12 -42 10 -80 -3z m-6 -93 c14 -6 28
-18 31 -27 10 -35 -5 -143 -32 -222 -26 -79 -28 -94 -28 -262 -1 -203 -7 -219
-83 -245 -38 -12 -46 -12 -78 5 -41 20 -74 72 -92 145 -12 47 -4 137 19 231
13 48 46 84 63 67 8 -8 7 -14 -6 -24 -34 -25 -26 -40 20 -37 28 2 56 -4 82
-18 43 -22 45 -22 54 30 6 33 4 37 -23 49 -40 16 -72 53 -80 92 -8 35 5 116
20 133 5 5 9 17 9 26 0 22 55 69 80 69 11 0 30 -5 44 -12z m-204 -923 c0 -7
14 -44 31 -81 17 -40 28 -77 25 -90 -3 -12 6 -55 20 -95 32 -90 28 -133 -16
-189 -34 -43 -101 -70 -130 -53 -24 15 -60 94 -60 133 0 40 25 109 69 193 34
65 48 139 32 178 -5 15 -7 30 -4 33 8 8 33 -14 33 -29z"/>
<path d="M2189 5868 c-7 -13 -28 -37 -47 -54 l-36 -31 20 -34 c19 -31 76 -79
95 -79 14 0 41 61 41 94 0 36 -25 97 -46 115 -12 10 -17 8 -27 -11z"/>
<path d="M2116 5064 c-3 -8 -1 -25 5 -36 15 -27 34 -8 25 26 -7 29 -21 34 -30
10z"/>
<path d="M2470 6381 c0 -12 29 -41 41 -41 15 0 10 16 -9 33 -21 19 -32 22 -32
8z"/>
<path d="M5310 6239 c-30 -40 -65 -88 -77 -106 -87 -128 -338 -343 -401 -343
-26 0 -37 -20 -46 -83 l-6 -49 88 48 c48 26 99 59 113 73 14 14 52 51 85 82
32 30 81 81 108 112 27 31 53 57 58 57 37 0 -72 -290 -127 -338 -17 -15 -25
-32 -25 -55 0 -19 -3 -37 -7 -41 -7 -7 -9 -16 -19 -94 -5 -43 -4 -51 8 -47 30
12 170 219 198 295 10 25 26 63 35 85 10 22 22 56 26 75 4 19 13 53 19 75 19
66 31 174 28 253 l-3 75 -55 -74z"/>
<path d="M2500 6252 c0 -33 4 -39 30 -49 17 -6 30 -8 30 -4 0 23 -23 68 -40
79 -19 11 -20 10 -20 -26z"/>
<path d="M587 6238 c-34 -34 -74 -164 -87 -285 -9 -87 -9 -110 5 -157 17 -59
25 -66 45 -41 7 8 18 15 24 15 7 0 23 11 35 24 22 24 22 24 4 77 -24 72 -24
172 1 227 10 23 25 42 32 42 14 0 90 -87 126 -145 44 -71 68 -161 68 -253 0
-71 -5 -95 -31 -159 -27 -65 -31 -82 -25 -130 8 -70 12 -76 35 -57 57 48 82
75 77 82 -3 5 3 38 13 73 32 113 33 339 1 405 -11 22 -20 44 -20 49 0 24 -64
136 -99 172 -54 56 -77 70 -133 78 -41 6 -50 4 -71 -17z"/>
<path d="M2475 6069 c-8 -26 -3 -31 35 -36 34 -3 40 15 14 41 -21 22 -41 20
-49 -5z"/>
<path d="M4794 6036 c-46 -47 -104 -144 -110 -184 -2 -8 -6 -21 -10 -30 -10
-24 -11 -29 -34 -175 -15 -91 -9 -173 17 -224 23 -46 78 -69 144 -59 40 6 47
11 57 40 18 49 16 53 -34 54 -26 0 -53 7 -60 14 -8 8 -17 43 -20 79 -8 86 53
329 93 371 36 37 53 27 53 -32 l0 -49 53 36 c28 19 57 39 63 44 29 24 -89 169
-138 169 -13 0 -42 -21 -74 -54z"/>
<path d="M3675 5964 c-58 -30 -87 -74 -50 -74 8 0 15 5 15 11 0 7 16 27 36 45
40 39 40 40 -1 18z"/>
<path d="M725 5844 c-33 -19 -67 -38 -75 -41 -8 -4 -21 -13 -28 -20 -8 -7 -33
-26 -57 -43 -80 -55 -147 -158 -214 -327 -38 -94 -23 -158 38 -168 44 -7 174
17 227 42 38 18 39 20 36 63 -2 24 -4 45 -6 47 -1 2 -21 -6 -44 -17 -54 -26
-128 -40 -141 -27 -19 19 39 134 103 207 70 79 174 176 239 222 14 11 16 20
10 52 -5 22 -13 41 -18 42 -6 2 -37 -13 -70 -32z"/>
<path d="M3155 5748 c-9 -23 -2 -83 10 -83 14 0 18 46 6 75 -7 21 -10 22 -16
8z"/>
<path d="M650 5625 c-26 -27 -31 -37 -22 -48 23 -27 44 -143 45 -237 0 -129
-10 -183 -49 -263 -37 -73 -42 -112 -20 -142 12 -17 16 -15 49 31 58 79 91
154 111 258 20 100 19 155 -4 236 -26 93 -64 200 -71 200 -3 0 -20 -16 -39
-35z"/>
<path d="M3503 5376 c6 -18 87 -29 115 -17 35 16 24 22 -52 25 -44 2 -65 -1
-63 -8z"/>
<path d="M274 5181 c-14 -6 -24 -23 -29 -48 -12 -56 -13 -223 -2 -258 17 -56
45 -112 73 -144 l27 -32 28 27 c35 33 36 45 8 70 -41 37 -68 106 -71 185 l-3
74 35 2 c38 3 99 -32 131 -77 55 -74 85 -249 59 -339 -8 -27 -6 -38 5 -51 8
-9 15 -23 15 -31 0 -8 8 -25 17 -39 l17 -24 12 49 c7 27 11 52 9 56 -3 4 2 12
10 19 21 18 19 137 -4 225 -22 85 -78 209 -114 251 -60 70 -164 110 -223 85z"/>
<path d="M2660 5134 c-19 -7 -46 -13 -59 -13 -28 -1 -134 -57 -203 -108 -62
-45 -62 -67 -4 -126 62 -61 127 -93 209 -101 37 -4 67 -4 67 -1 0 3 -12 22
-27 41 -23 27 -35 34 -64 34 -55 0 -119 39 -119 73 0 40 98 74 246 84 73 5
100 2 137 -12 25 -9 48 -24 51 -31 6 -16 42 -11 85 11 l23 12 -32 37 c-18 20
-63 55 -99 76 -58 34 -75 40 -122 39 -30 -1 -70 -7 -89 -15z"/>
<path d="M4090 5133 c-38 -7 -102 -61 -152 -128 -46 -62 -98 -195 -98 -251 0
-43 42 -153 60 -156 29 -6 150 20 176 37 45 29 94 84 110 120 8 19 14 36 14
37 0 2 -16 4 -35 5 -29 3 -41 -4 -74 -37 -62 -64 -140 -89 -161 -51 -16 31
-12 108 8 149 42 85 86 149 124 184 33 30 46 36 70 31 25 -5 28 -3 28 20 0 22
-28 52 -42 46 -2 -1 -14 -4 -28 -6z"/>
<path d="M4301 5058 c-6 -17 -11 -32 -11 -33 0 -2 14 -8 30 -15 39 -16 85 -69
71 -83 -14 -14 -135 -35 -185 -32 -23 1 -76 13 -116 26 -71 22 -73 22 -87 4
-22 -31 -11 -49 37 -65 25 -8 51 -19 57 -23 7 -4 61 -9 120 -11 99 -4 114 -2
172 23 70 28 107 66 97 99 -5 16 -118 110 -163 135 -7 4 -15 -5 -22 -25z"/>
<path d="M3722 4959 c-65 -36 -112 -80 -195 -182 -21 -26 -45 -47 -52 -47 -26
0 -16 -25 16 -44 l31 -18 36 33 c19 19 47 47 61 64 97 111 136 142 184 149 39
6 52 13 67 38 10 18 17 35 14 40 -13 20 -96 4 -162 -33z"/>
<path d="M2608 4983 c-10 -2 -18 -5 -18 -6 0 -1 6 -18 13 -37 24 -62 40 -90
54 -90 7 0 13 -7 13 -15 0 -8 5 -15 10 -15 6 0 15 -11 20 -24 5 -13 21 -32 35
-43 15 -10 53 -39 85 -65 50 -41 152 -88 190 -88 21 0 37 59 47 172 7 79 0 85
-62 64 -39 -14 -40 -16 -40 -59 0 -25 -3 -48 -7 -52 -3 -3 -25 -1 -48 5 -29 8
-60 29 -101 70 -33 32 -59 61 -59 65 0 4 -9 20 -21 36 -11 16 -17 29 -13 29 4
0 -5 14 -21 30 -28 29 -40 33 -77 23z"/>
<path d="M3030 4965 c-25 -6 -54 -15 -65 -19 -56 -22 -72 -26 -95 -26 -27 1
-108 -15 -115 -22 -7 -7 19 -58 29 -58 5 0 18 -8 28 -17 17 -15 21 -15 64 7
26 12 87 30 138 38 l91 16 43 -28 44 -27 34 26 c35 27 45 55 19 55 -8 0 -15 4
-15 9 0 15 -82 53 -120 56 -19 1 -55 -3 -80 -10z"/>
<path d="M3405 4921 c-48 -8 -151 -70 -209 -125 -40 -39 -136 -182 -136 -203
0 -23 31 -70 54 -83 38 -20 148 -8 234 26 39 16 72 31 72 35 0 4 -16 17 -35
29 l-34 21 -59 -21 c-66 -24 -100 -23 -116 2 -40 64 210 252 330 250 32 -1 52
4 66 18 27 25 18 36 -37 43 -25 4 -55 8 -67 11 -13 2 -41 1 -63 -3z"/>
<path d="M458 4807 c-21 -29 -57 -72 -81 -97 -48 -50 -141 -170 -132 -170 3 0
-2 -15 -11 -32 -29 -55 -36 -175 -14 -228 11 -26 15 -27 53 -23 68 8 109 23
165 61 35 24 51 41 48 51 -3 9 -8 28 -12 44 -3 15 -11 27 -16 27 -6 0 -40 -21
-76 -46 -50 -35 -70 -44 -82 -36 -24 16 -13 80 26 147 50 87 56 96 92 142 17
23 32 46 32 52 0 6 9 15 20 21 11 6 20 16 20 22 0 6 7 19 16 29 11 12 13 27 9
53 -4 20 -10 36 -14 36 -3 -1 -23 -24 -43 -53z"/>
<path d="M3681 4796 l-22 -23 35 -35 c69 -69 54 -128 -33 -128 -78 0 -264 90
-291 140 -10 19 -11 19 -48 -2 -20 -12 -39 -23 -41 -24 -12 -9 97 -91 164
-124 105 -50 244 -78 269 -52 4 4 11 7 14 8 30 2 73 18 79 28 5 7 15 17 24 22
15 8 15 14 -4 62 -18 48 -98 152 -116 152 -4 0 -17 -11 -30 -24z"/>
<path d="M431 4637 c-19 -23 -22 -33 -14 -46 33 -53 64 -124 80 -181 22 -81
25 -298 5 -323 -14 -16 -4 -45 31 -89 21 -27 24 -23 32 35 4 28 14 65 23 82
16 31 20 165 8 239 -15 88 -102 299 -128 308 -7 3 -24 -8 -37 -25z"/>
<path d="M3845 4415 c-27 -10 -347 -35 -452 -35 -124 0 -244 -20 -333 -55 -74
-30 -230 -139 -309 -217 -78 -76 -191 -220 -191 -243 0 -7 -7 -18 -15 -25 -21
-17 -10 -29 49 -55 90 -40 93 -40 112 -4 18 36 70 104 142 187 57 66 167 150
247 190 73 37 231 89 304 101 56 9 106 2 106 -15 0 -5 -19 -47 -42 -94 -49
-99 -181 -262 -288 -355 l-70 -61 -3 -117 -4 -117 44 29 c90 61 221 221 384
471 46 69 88 132 96 140 57 67 187 208 203 221 73 60 71 58 50 58 -11 0 -24
-2 -30 -4z"/>
<path d="M222 4110 c-40 -25 -41 -49 -4 -147 21 -55 41 -86 85 -132 33 -34 63
-59 67 -56 5 3 11 18 15 34 5 25 -1 36 -49 85 -64 64 -90 109 -81 136 5 17 16
20 63 20 36 0 70 -7 92 -18 64 -34 139 -172 144 -263 1 -26 21 -59 36 -59 9 0
21 52 20 88 0 35 -66 161 -115 218 -84 98 -200 138 -273 94z"/>
<path d="M2956 4023 l-66 -58 -2 -125 c-1 -69 -2 -141 -4 -160 -1 -19 4 -116
12 -215 19 -242 22 -581 6 -597 -17 -17 -158 132 -197 208 -16 33 -33 61 -37
64 -18 13 -77 207 -84 270 l-7 70 -71 34 c-39 18 -74 31 -78 29 -18 -10 0
-234 27 -343 4 -14 10 -41 14 -60 4 -19 15 -51 24 -70 50 -110 77 -174 77
-186 0 -7 4 -14 8 -16 5 -1 26 -32 46 -68 44 -75 42 -73 173 -205 112 -114
167 -163 213 -187 44 -25 53 -23 46 10 -21 88 -34 272 -30 437 5 185 7 215 24
300 5 28 12 124 15 214 3 90 8 168 11 172 3 5 5 59 5 121 -1 177 -30 418 -51
418 -5 0 -38 -26 -74 -57z"/>
<path d="M427 3860 c-15 -44 -27 -86 -27 -95 0 -8 -4 -15 -8 -15 -15 0 -52
-161 -52 -221 0 -73 17 -160 34 -177 23 -23 84 11 153 84 l61 66 -16 29 c-21
36 -30 33 -59 -17 -34 -59 -36 -61 -59 -68 -18 -5 -22 -1 -28 25 -17 84 5 216
60 360 15 40 15 50 3 77 -8 18 -19 32 -25 32 -5 0 -22 -36 -37 -80z"/>
<path d="M481 3743 c-16 -55 -15 -57 30 -102 94 -93 139 -202 139 -334 0 -79
2 -85 29 -111 l29 -28 7 56 c7 52 2 183 -7 216 -22 77 -32 102 -56 148 -25 50
-138 190 -154 191 -4 1 -12 -16 -17 -36z"/>
<path d="M373 3264 c-11 -29 5 -119 29 -159 50 -87 64 -105 100 -123 20 -11
39 -18 42 -14 17 16 2 50 -35 81 -52 45 -97 135 -78 157 18 22 77 11 137 -26
47 -29 134 -134 160 -194 17 -39 41 -66 60 -66 9 0 12 6 7 18 -4 9 -9 35 -12
57 -10 73 -107 199 -184 240 -84 45 -213 61 -226 29z"/>
<path d="M587 3043 c-9 -38 -19 -124 -23 -193 -6 -122 -6 -128 20 -183 27 -59
60 -84 96 -72 18 6 100 128 100 150 0 8 -9 19 -19 25 -17 9 -24 4 -48 -33 -34
-50 -70 -57 -91 -17 -21 40 0 213 34 278 8 15 14 31 14 36 0 12 -49 76 -59 76
-4 0 -15 -30 -24 -67z"/>
<path d="M660 2921 c0 -33 6 -44 43 -76 23 -21 59 -52 79 -70 20 -19 43 -37
51 -42 17 -10 78 -97 94 -135 11 -25 79 -65 91 -54 9 9 -39 97 -94 177 -83
118 -212 239 -256 239 -4 0 -8 -17 -8 -39z"/>
<path d="M751 2551 c-29 -10 -65 -31 -80 -45 l-26 -26 30 -57 c16 -31 41 -68
55 -83 36 -37 183 -121 193 -111 5 5 7 23 5 41 -3 29 -11 37 -61 64 -69 38
-117 81 -117 107 0 23 48 49 92 49 76 0 205 -86 263 -176 20 -30 43 -54 57
-57 12 -3 33 -8 45 -12 20 -6 21 -5 13 27 -15 66 -30 87 -98 144 -109 93 -156
124 -185 124 -8 0 -28 7 -43 15 -38 20 -77 18 -143 -4z"/>
<path d="M953 2323 c10 -172 34 -282 81 -362 31 -55 86 -124 110 -140 11 -8
41 -32 65 -53 24 -21 47 -38 51 -38 5 0 7 59 6 131 l-1 131 -35 29 c-44 37
-50 37 -38 -6 12 -38 1 -96 -20 -103 -19 -6 -78 62 -92 105 -7 21 -16 43 -20
48 -10 13 -21 108 -25 212 -3 86 -13 106 -63 133 l-24 12 5 -99z"/>
<path d="M1065 2252 c-3 -3 -5 -25 -5 -49 0 -43 1 -45 48 -66 107 -50 292
-234 292 -291 0 -15 9 -45 20 -66 11 -22 18 -40 16 -40 -3 0 17 -63 44 -139
58 -165 159 -340 254 -440 64 -66 164 -148 269 -218 34 -23 76 -52 92 -66 17
-13 59 -34 95 -47 36 -13 116 -47 178 -77 63 -29 117 -53 121 -53 14 0 61 -25
61 -33 0 -5 4 -6 9 -2 5 3 29 -2 53 -10 24 -8 87 -20 141 -25 54 -5 102 -12
106 -14 10 -7 139 -20 196 -20 58 0 255 13 303 19 18 3 41 9 52 15 10 5 30 10
45 10 27 0 90 35 116 66 22 25 48 112 44 149 -1 17 -3 42 -4 56 -1 22 -14 33
-83 69 -46 23 -92 49 -103 56 -30 22 -35 17 -35 -32 0 -53 -26 -103 -69 -133
-20 -15 -54 -22 -122 -28 -52 -4 -101 -7 -109 -5 -8 1 -71 4 -140 6 -154 6
-233 15 -284 32 -22 8 -41 12 -44 10 -2 -3 -17 1 -33 9 -15 8 -38 15 -49 15
-12 0 -31 5 -43 12 -12 6 -35 13 -52 15 -16 2 -43 9 -60 17 -16 8 -55 25 -85
37 -57 25 -130 68 -219 130 -97 68 -286 264 -355 370 -16 24 -38 57 -48 72
-25 36 -88 157 -88 168 0 20 27 6 63 -33 20 -22 50 -48 65 -56 83 -45 202
-102 228 -108 16 -4 38 -12 49 -17 11 -6 25 -12 30 -13 6 -1 30 -9 55 -17 45
-16 62 -19 235 -52 50 -9 135 -25 190 -36 116 -22 161 -24 167 -7 2 7 3 49 3
92 l0 80 -40 3 c-22 2 -53 8 -70 13 -16 5 -46 11 -65 14 -98 14 -229 53 -455
134 -194 70 -210 77 -218 90 -4 6 -15 12 -24 12 -26 0 -164 73 -174 92 -5 9
-40 39 -77 65 -37 26 -85 62 -106 80 -22 18 -44 33 -48 33 -5 0 -28 13 -51 29
-108 74 -263 142 -282 123z"/>
<path d="M3012 2113 c-32 -38 -81 -97 -108 -133 -52 -68 -132 -213 -137 -248
-2 -11 -8 -26 -15 -34 -6 -8 -14 -30 -16 -49 -3 -19 -9 -55 -15 -82 -15 -63
-16 -368 -2 -437 7 -30 14 -69 17 -87 7 -43 36 -125 55 -153 14 -22 19 -22
102 -15 95 7 97 10 73 67 -16 36 -37 116 -60 223 -31 147 -11 414 40 531 37
86 58 124 67 124 52 0 120 -84 198 -244 22 -44 51 -101 64 -126 13 -25 25 -51
25 -57 0 -7 19 -22 43 -33 23 -11 56 -29 72 -40 79 -50 150 -86 154 -78 2 5
-18 60 -44 121 -26 62 -52 126 -59 142 -7 17 -38 82 -70 145 -31 63 -56 121
-56 128 0 18 -58 120 -96 168 -18 22 -45 63 -59 90 -43 78 -89 143 -101 144
-7 0 -39 -30 -72 -67z"/>
<path d="M2919 1468 c0 -24 -3 -69 -5 -101 -4 -55 -3 -58 23 -67 16 -6 46 -20
68 -31 22 -12 69 -37 105 -55 36 -19 72 -38 80 -43 8 -4 31 -15 50 -23 64 -27
214 -102 280 -139 36 -20 76 -40 90 -44 14 -4 31 -16 38 -26 7 -11 18 -19 23
-19 5 0 51 -25 102 -56 51 -32 139 -85 197 -119 58 -34 122 -73 142 -87 72
-49 382 -195 468 -220 19 -5 41 -16 49 -23 11 -11 10 -15 -6 -23 -52 -28 -552
-21 -663 9 -202 54 -563 174 -568 189 -2 6 -7 8 -12 5 -14 -9 -181 -20 -307
-20 -74 0 -122 -4 -120 -10 2 -5 46 -31 97 -57 52 -27 103 -54 114 -61 12 -7
41 -19 66 -27 25 -7 56 -19 70 -26 22 -11 379 -133 405 -138 5 -2 28 -8 50
-14 22 -6 58 -13 80 -17 22 -3 96 -15 165 -26 179 -30 464 -36 690 -15 186 18
372 43 430 57 19 4 53 11 75 14 22 4 56 10 75 15 19 5 48 11 63 14 39 7 218
98 214 110 -2 5 -88 10 -192 12 -131 2 -208 8 -250 18 -32 9 -72 16 -87 16
-144 0 -610 185 -788 313 -40 28 -94 67 -119 85 -25 18 -55 37 -66 43 -11 5
-54 34 -95 64 -41 30 -112 79 -157 110 -45 30 -84 59 -88 64 -3 6 -33 24 -68
41 -34 18 -80 44 -102 59 -105 72 -316 191 -338 191 -7 0 -17 4 -22 9 -6 5
-39 19 -75 32 -36 12 -71 27 -77 32 -7 5 -13 6 -13 2 0 -4 -6 -3 -12 3 -7 5
-28 13 -45 17 l-33 7 -1 -44z"/>
</g>
</svg>
